<?xml version="1.0" encoding="UTF-8"?>
<svg version="1.1" xmlns="http://www.w3.org/2000/svg" width="500" height="500">
<path d="M0 0 C1.19449568 -0.00657338 1.19449568 -0.00657338 2.41312259 -0.01327956 C5.07277577 -0.02659894 7.73239586 -0.03283092 10.39207458 -0.03897095 C12.30287829 -0.04687736 14.21368052 -0.05514664 16.1244812 -0.06375122 C22.39261969 -0.08990998 28.66076465 -0.10527319 34.92893982 -0.11953735 C37.09121644 -0.12489965 39.25349303 -0.13027716 41.41576958 -0.13566971 C50.4138217 -0.15728981 59.41187208 -0.1760245 68.40994358 -0.1872921 C81.28173101 -0.20351957 94.15321606 -0.2366784 107.02488953 -0.29369295 C116.0884083 -0.33246332 125.15184644 -0.35193322 134.21544594 -0.35721266 C139.62227951 -0.36085648 145.02879012 -0.37277472 150.43553352 -0.4053154 C155.5270746 -0.43552083 160.61809937 -0.44166349 165.70971107 -0.42993164 C167.57000408 -0.42971195 169.43032193 -0.43793001 171.29053116 -0.45558548 C184.05882897 -0.57009532 196.73378468 0.01845568 206.50315857 9.49765015 C216.01871918 20.58170976 216.31722984 32.18172501 216.05003357 46.09140015 C216.01492572 48.50686841 215.98419613 50.92228669 215.95869446 53.33787537 C215.94175496 54.83262096 215.91864359 56.32731225 215.88868713 57.82185364 C215.76263376 61.61262108 215.76263376 61.61262108 216.92503357 65.15390015 C217.02258641 67.3201254 217.05580465 69.48938664 217.05784607 71.6578064 C217.05913513 72.9552478 217.06042419 74.25268921 217.06175232 75.58944702 C217.05965759 76.26612427 217.05756287 76.94280151 217.05540466 77.63998413 C217.05004559 79.7117543 217.05535875 81.78330853 217.06175232 83.85507202 C217.05981873 85.79930054 217.05981873 85.79930054 217.05784607 87.7828064 C217.05671814 88.97978149 217.05559021 90.17675659 217.0544281 91.41000366 C216.92503357 94.15390015 216.92503357 94.15390015 215.92503357 95.15390015 C215.83121387 96.75332307 215.807595 98.35690849 215.81150818 99.95907593 C215.81157867 100.99921341 215.81164917 102.03935089 215.8117218 103.11100769 C215.81688812 104.26211533 215.82205444 105.41322296 215.82737732 106.59921265 C215.82883759 107.80409836 215.83029785 109.00898407 215.83180237 110.25038147 C215.83562012 112.87829631 215.84125314 115.50613647 215.84986877 118.1340332 C215.86336814 122.29519412 215.86928139 126.45634433 215.87400818 130.61752319 C215.88607229 140.21291371 215.90804452 149.80827686 215.93023682 159.40364838 C215.95044494 168.17531421 215.96852367 176.94697035 215.97845173 185.71865463 C215.9834142 189.84827934 215.99324592 193.9778543 216.00688171 198.10745907 C216.01615307 201.29611053 216.01886975 204.48476945 216.02268982 207.6734314 C216.02785614 208.80834518 216.03302246 209.94325897 216.03834534 211.11256409 C216.03913716 223.04895521 215.36702602 232.96809001 207.03050232 242.2671814 C197.50202288 251.04390703 188.14264207 252.30430564 175.62770081 252.30107117 C174.84373015 252.30474786 174.0597595 252.30842454 173.25203216 252.31221265 C170.65230306 252.32313441 168.05261408 252.32707343 165.4528656 252.3309021 C163.57778297 252.33717519 161.70270155 252.34382273 159.82762146 252.35081482 C153.69603829 252.37174746 147.56445517 252.38220331 141.43284607 252.3921814 C139.31540286 252.39623223 137.19795977 252.40034924 135.08051682 252.40453148 C125.13490195 252.42355508 115.1892944 252.4377951 105.24366486 252.44614345 C93.7859554 252.45592203 82.32843879 252.48226974 70.87079728 252.52264434 C61.99663035 252.55283692 53.12251866 252.56761508 44.24830139 252.57092446 C38.9556449 252.57327019 33.66319515 252.58216962 28.37059402 252.60738564 C23.39151381 252.63072816 18.41277562 252.63487476 13.43365479 252.62462425 C11.61284113 252.62413038 9.79201025 252.63040666 7.97124863 252.6441803 C-4.39580684 252.73245676 -15.26084159 252.07760929 -25.29371643 243.9156189 C-32.03176458 237.25145286 -36.37267505 228.54535914 -36.47153455 219.02861595 C-36.46416027 218.29474977 -36.45678598 217.5608836 -36.44918823 216.80477905 C-36.45316264 216.00321192 -36.45713704 215.20164478 -36.46123189 214.37578773 C-36.47079721 211.71049469 -36.459072 209.04574015 -36.44728088 206.38046265 C-36.44971075 204.46125084 -36.45343196 202.54204031 -36.45834351 200.62283325 C-36.46772937 195.42452057 -36.45834638 190.22639695 -36.44501138 185.02809906 C-36.43367297 179.58126304 -36.43780624 174.13443599 -36.4397583 168.68759155 C-36.44064052 159.54156415 -36.42957595 150.39561096 -36.41114807 141.24960327 C-36.3899816 130.68407241 -36.38647104 120.11865026 -36.39271003 109.55310249 C-36.39841003 99.37841485 -36.39275051 89.20376539 -36.38153648 79.02908325 C-36.37689894 74.70392143 -36.376013 70.37878302 -36.37812233 66.05361938 C-36.3800097 60.95806697 -36.37186676 55.86262476 -36.35606194 50.76709747 C-36.35182926 48.89988918 -36.35096167 47.03266968 -36.35375214 45.16545868 C-36.35698952 42.611193 -36.34785313 40.05725341 -36.33566284 37.50302124 C-36.33944217 36.76915506 -36.34322149 36.03528889 -36.34711534 35.27918434 C-36.26255346 25.22053557 -33.07238761 16.46988204 -26.11402893 9.06796265 C-18.0422326 1.73840046 -10.74104692 0.0072614 0 0 Z M63.05003357 44.52890015 C62.01104919 44.55967651 60.97206482 44.59045288 59.90159607 44.62216187 C44.59934465 45.21620867 31.41255009 47.95233901 19.96409607 58.81796265 C7.13690621 73.51271272 7.76320705 90.44708518 7.79222107 108.96640015 C7.7915446 110.35157284 7.79057176 111.73674543 7.7893219 113.12191772 C7.78786101 116.0027074 7.78994703 118.88346573 7.79466248 121.76425171 C7.80035876 125.41821286 7.79707103 129.07210049 7.79109001 132.72605896 C7.78744053 135.57972751 7.78864291 138.43337923 7.7912178 141.28704834 C7.79218958 143.27692717 7.78920456 145.26680672 7.78608704 147.25668335 C7.83131782 165.02645846 8.40559545 180.31953226 20.73753357 194.19296265 C31.64614328 204.51068934 44.92989552 207.29887043 59.42503357 207.77890015 C60.43622253 207.81612183 61.4474115 207.85334351 62.48924255 207.89169312 C81.58805505 208.50948283 100.76843348 208.51889463 119.86253357 207.77890015 C120.73595398 207.74812378 121.60937439 207.71734741 122.50926208 207.68563843 C135.71746961 207.06531727 148.39807277 204.23485723 158.33909607 194.8999939 C171.90540985 179.96368291 172.08290198 163.91316569 172.09300232 144.66952515 C172.096228 143.20042897 172.09959298 141.7313331 172.10308838 140.26223755 C172.10903244 137.19975034 172.11093319 134.13729114 172.1103363 131.07479858 C172.11023494 127.19797429 172.12388168 123.32133419 172.14110851 119.44455338 C172.15236109 116.41404434 172.1542515 113.38357799 172.15372658 110.35305023 C172.15488706 108.92606726 172.15919644 107.49908245 172.16705894 106.07212067 C172.25694861 88.07599815 171.49941858 70.98454276 158.37425232 57.2593689 C149.65895258 49.76726912 140.42157877 45.76252554 128.92503357 45.15390015 C127.59496277 45.0758313 127.59496277 45.0758313 126.23802185 44.9961853 C105.19170558 43.82675499 84.11224847 43.82824179 63.05003357 44.52890015 Z " fill="#D46589" transform="translate(160.07496643066406,123.84609985351563)"/>
<path d="M0 0 C1.20462891 0.03359619 1.20462891 0.03359619 2.43359375 0.06787109 C12.50008266 0.54982388 20.80228925 3.53107631 28 10.6875 C35.39789706 19.93883166 37.11049381 28.62886082 37.14526367 40.29003906 C37.14862228 41.00344955 37.1519809 41.71686005 37.15544128 42.45188904 C37.16485738 44.7856526 37.16688975 47.11934368 37.16796875 49.453125 C37.17118817 51.09446236 37.17455274 52.73579945 37.17805481 54.37713623 C37.18402302 57.8098619 37.18589713 61.24256248 37.18530273 64.67529297 C37.18520133 69.04361716 37.19884183 73.41177804 37.21607494 77.78006363 C37.22727129 81.16899331 37.2292196 84.55788448 37.22869301 87.94683075 C37.2298621 89.55574861 37.23422265 91.16466783 37.24202538 92.7735672 C37.364261 120.58359707 37.364261 120.58359707 28.2109375 130.65625 C20.22773694 138.16236687 11.46168701 140.71031016 0.74609375 141.2421875 C-0.49908775 141.30525589 -0.49908775 141.30525589 -1.76942444 141.36959839 C-11.45799737 141.81504102 -21.14544524 141.83781289 -30.8425293 141.81787109 C-33.93087686 141.81251149 -37.01907867 141.81785456 -40.10742188 141.82421875 C-49.79103035 141.82850711 -59.46167445 141.7206564 -69.13671875 141.29296875 C-69.94866196 141.26103424 -70.76060516 141.22909973 -71.59715271 141.19619751 C-77.63062857 140.88839366 -82.71322277 139.73337989 -88 136.6875 C-89.0725 136.089375 -90.145 135.49125 -91.25 134.875 C-97.85833175 129.61837247 -102.9745686 122.97979483 -104.36376953 114.45532227 C-104.94094563 107.95424535 -105.31300624 101.45924639 -105.5625 94.9375 C-105.6042334 93.84695313 -105.6459668 92.75640625 -105.68896484 91.6328125 C-108.10392323 23.65912656 -108.10392323 23.65912656 -95.953125 10.46484375 C-75.20582642 -9.24508991 -26.74797993 -0.97658991 0 0 Z M5 19.6875 C2.4900028 23.45249581 2.38523256 25.23043606 3 29.6875 C5.42462844 32.86081062 5.42462844 32.86081062 9 34.6875 C12.98721529 34.75624509 15.1250277 34.27081487 18.4375 32.0625 C20.64220216 28.71135272 20.55263296 26.62500984 20 22.6875 C18.03928757 19.21854724 16.84456051 17.97500996 13.0625 16.6875 C9.39707859 16.6875 7.86943977 17.45571352 5 19.6875 Z M-67.02734375 44.00390625 C-74.47711957 53.81619026 -77.27606267 64.46497202 -76 76.6875 C-73.64093519 88.68648433 -67.98955105 98.22064287 -58.125 105.4375 C-48.28691074 112.02576998 -37.73962906 113.95935523 -26.07421875 112.26171875 C-15.52183545 110.03079984 -6.06964916 104.78312585 0 95.6875 C7.36811635 84.00504082 9.79085629 73.22082694 6.875 59.625 C5.29205943 53.78837552 2.67748795 49.43391112 -1 44.6875 C-1.61875 43.800625 -2.2375 42.91375 -2.875 42 C-10.30942382 33.90959761 -19.9436702 29.46321264 -30.83984375 28.4140625 C-45.37499053 27.93750031 -57.44493079 33.05521476 -67.02734375 44.00390625 Z " fill="#E26273" transform="translate(284,179.3125)"/>
<path d="M0 0 C7.53613971 4.24256754 12.21033941 10.61255062 15.484375 18.5 C17.23403213 28.82297707 16.53541963 38.26034731 10.7890625 47.25390625 C5.79892099 53.56657161 -0.97768597 57.73679451 -8.890625 59.1875 C-19.11839532 60.1426797 -28.12385538 58.55610662 -36.265625 52 C-41.98827461 46.54761926 -45.53019838 39.93213237 -46.12890625 32.05078125 C-46.28829945 24.42507483 -45.84058361 18.77076435 -41.890625 12.1875 C-41.25125 11.094375 -40.611875 10.00125 -39.953125 8.875 C-30.64528428 -3.25339851 -13.62171171 -6.41021728 0 0 Z " fill="#E25E61" transform="translate(264.890625,221.8125)"/>
<path d="M0 0 C25.3306488 -0.11696466 50.66125694 -0.20505256 75.9921217 -0.25906086 C87.75452405 -0.28480791 99.5167583 -0.31989158 111.27905273 -0.37719727 C121.53483313 -0.42713929 131.79049173 -0.45931643 142.04639035 -0.47044247 C147.4734498 -0.47694292 152.90016092 -0.49214785 158.32710838 -0.52865028 C163.44317341 -0.5627804 168.55874915 -0.57301873 173.67491722 -0.56553841 C175.54488796 -0.56690538 177.41487635 -0.57673581 179.28474808 -0.59602737 C192.08427667 -0.72151853 204.78161009 -0.16177932 214.578125 9.34375 C224.09368561 20.42780961 224.39219627 32.02782486 224.125 45.9375 C224.08989215 48.35296827 224.05916256 50.76838654 224.03366089 53.18397522 C224.01672139 54.67872082 223.99361002 56.1734121 223.96365356 57.66795349 C223.83760019 61.45872093 223.83760019 61.45872093 225 65 C225.09755284 67.16622525 225.13077109 69.33548649 225.1328125 71.50390625 C225.13410156 72.80134766 225.13539063 74.09878906 225.13671875 75.43554688 C225.13462402 76.11222412 225.1325293 76.78890137 225.13037109 77.48608398 C225.12501202 79.55785415 225.13032518 81.62940839 225.13671875 83.70117188 C225.13478516 85.64540039 225.13478516 85.64540039 225.1328125 87.62890625 C225.13168457 88.82588135 225.13055664 90.02285645 225.12939453 91.25610352 C225 94 225 94 224 95 C223.9061803 96.59942292 223.88256143 98.20300834 223.88647461 99.80517578 C223.8865451 100.84531326 223.8866156 101.88545074 223.88668823 102.95710754 C223.89185455 104.10821518 223.89702087 105.25932281 223.90234375 106.4453125 C223.90380402 107.65019821 223.90526428 108.85508392 223.9067688 110.09648132 C223.91058655 112.72439616 223.91621957 115.35223633 223.92483521 117.98013306 C223.93833457 122.14129398 223.94424782 126.30244419 223.94897461 130.46362305 C223.96103872 140.05901356 223.98301095 149.65437671 224.00520325 159.24974823 C224.02541137 168.02141407 224.0434901 176.7930702 224.05341816 185.56475449 C224.05838063 189.6943792 224.06821235 193.82395415 224.08184814 197.95355892 C224.0911195 201.14221038 224.09383618 204.33086931 224.09765625 207.51953125 C224.10282257 208.65444504 224.10798889 209.78935883 224.11331177 210.95866394 C224.11442498 227.73990994 224.11442498 227.73990994 221.45741272 230.74421692 C220.97646652 231.15862534 220.49552032 231.57303375 220 232 C219.34 230.68 218.68 229.36 218 228 C218.66 227.67 219.32 227.34 220 227 C219.67 225.35 219.34 223.7 219 222 C219.66 222 220.32 222 221 222 C220.99484627 221.43610565 220.98969254 220.8722113 220.98438263 220.29122925 C220.85670391 206.30454657 220.73152805 192.31784316 220.60884857 178.33111572 C220.54945673 171.56611053 220.48928432 164.80111431 220.42724609 158.03613281 C220.18056548 131.07637798 219.95370061 104.11727686 219.9375 77.15625 C219.9362059 76.18345093 219.9349118 75.21065186 219.93357849 74.20837402 C219.91748065 59.12008259 220.19421858 44.06982704 221 29 C220.01 29 219.02 29 218 29 C218 28.34 218 27.68 218 27 C218.66 27 219.32 27 220 27 C219.67 26.01 219.34 25.02 219 24 C218.34 24.33 217.68 24.66 217 25 C215.02 19.06 215.02 19.06 213 13 C212.34 13.66 211.68 14.32 211 15 C210.34 15 209.68 15 209 15 C209 13.68 209 12.36 209 11 C207.8553125 11.2784375 207.8553125 11.2784375 206.6875 11.5625 C204 12 204 12 201 11 C201.33 10.01 201.66 9.02 202 8 C202.66 8 203.32 8 204 8 C204.33 7.34 204.66 6.68 205 6 C203.35 5.67 201.7 5.34 200 5 C200 4.34 200 3.68 200 3 C198.02 3.33 196.04 3.66 194 4 C194 3.01 194 2.02 194 1 C129.98 1 65.96 1 0 1 C0 0.67 0 0.34 0 0 Z " fill="#CF6CA0" transform="translate(152,124)"/>
<path d="M0 0 C0.33 0 0.66 0 1 0 C1.00331015 0.98159749 1.00662029 1.96319498 1.01003075 2.97453785 C1.09094524 26.8345724 1.18323618 50.69454214 1.28752708 74.55448627 C1.33769623 86.09286988 1.3841386 97.63124622 1.421875 109.16967773 C1.45476691 119.22397084 1.49458252 129.27820831 1.54279006 139.33244008 C1.56808295 144.65842056 1.58985595 149.98436401 1.60334396 155.31038857 C1.61613904 160.3196583 1.63816568 165.3288012 1.66738319 170.33800125 C1.676479 172.17988021 1.68215385 174.02177962 1.68421364 175.86367989 C1.68752208 178.37197793 1.70296066 180.87991322 1.7215271 183.38813782 C1.71959237 184.12257042 1.71765763 184.85700302 1.71566427 185.61369115 C1.7566197 189.29642937 1.89955648 190.84933472 4 194 C4.165 194.86625 4.33 195.7325 4.5 196.625 C4.665 197.40875 4.83 198.1925 5 199 C5.66 199.33 6.32 199.66 7 200 C7 201.32 7 202.64 7 204 C7.99 204 8.98 204 10 204 C10.20753906 204.60328125 10.41507813 205.2065625 10.62890625 205.828125 C12.3121903 210.19480328 13.55287912 213.22130681 17.75 215.5625 C18.8225 216.036875 19.895 216.51125 21 217 C21 217.66 21 218.32 21 219 C22.98 218.01 22.98 218.01 25 217 C26.485 217.99 26.485 217.99 28 219 C30.16413731 219.29207813 30.16413731 219.29207813 32.58720398 219.23377991 C34.00070633 219.23573616 34.00070633 219.23573616 35.44276428 219.23773193 C36.99223 219.22458954 36.99223 219.22458954 38.57299805 219.21118164 C39.66320251 219.2098674 40.75340698 219.20855316 41.87664795 219.2071991 C45.50509113 219.2006779 49.13332718 219.18019724 52.76171875 219.16015625 C55.3039375 219.1538781 57.84615901 219.14864059 60.38838196 219.14439392 C67.1181427 219.13105057 73.84780262 219.10665016 80.57751465 219.07904053 C92.51387369 219.03026167 104.45028588 218.99689272 116.38671875 218.97265625 C118.29882959 218.96863234 118.29882959 218.96863234 120.24956894 218.96452713 C164.79937255 218.88742417 164.79937255 218.88742417 186.28874207 220.77720642 C189.84637799 221.06954985 193.3848476 221.21056751 196.953125 221.31640625 C197.95977203 221.3475779 197.95977203 221.3475779 198.98675537 221.37937927 C201.07442758 221.44336578 203.16219465 221.50303565 205.25 221.5625 C206.68881084 221.60582986 208.12761304 221.64944794 209.56640625 221.69335938 C213.04417776 221.79888509 216.52204888 221.90054774 220 222 C220 222.33 220 222.66 220 223 C195.15632465 223.09353182 170.31267577 223.16402262 145.46885967 223.20724869 C133.93287449 223.22785472 122.39699885 223.25593795 110.86108398 223.30175781 C100.80382217 223.34168545 90.74663971 223.36744704 80.68930084 223.37635398 C75.36631654 223.38155866 70.04355921 223.39375087 64.72064781 223.42292023 C59.70476835 223.45018292 54.68920817 223.45842309 49.67326164 223.45243073 C47.83793652 223.45352612 46.0026001 223.46141504 44.16733932 223.4768219 C31.75372979 223.57587239 20.85462617 222.95665797 10.78125 214.76171875 C4.02923786 208.08374183 -0.30572371 199.3727714 -0.38724393 189.83741903 C-0.3785054 189.0980959 -0.36976688 188.35877276 -0.36076355 187.5970459 C-0.36332682 186.78983424 -0.3658901 185.98262258 -0.36853105 185.15094995 C-0.37344212 182.46696152 -0.35702069 179.78354531 -0.34057617 177.09960938 C-0.33972932 175.16741957 -0.34020618 173.2352288 -0.34190369 171.30303955 C-0.34276279 166.07219004 -0.32515065 160.84154782 -0.30418181 155.61074638 C-0.28540095 150.13882377 -0.28366346 144.66689616 -0.28010559 139.19494629 C-0.27078928 128.83953815 -0.24618105 118.48422527 -0.21605712 108.12885904 C-0.18250027 96.33689195 -0.16602386 84.54492026 -0.15097082 72.75291729 C-0.11963118 48.50189209 -0.06687867 24.25095139 0 0 Z " fill="#F7D5B3" transform="translate(124,153)"/>
<path d="M0 0 C1.29968468 -0.00218285 1.29968468 -0.00218285 2.62562561 -0.00440979 C5.42884718 -0.00664885 8.23194689 -0.00040166 11.03515625 0.0078125 C11.98495361 0.00969574 12.93475098 0.01157898 13.91333008 0.01351929 C35.81884323 0.06478929 35.81884323 0.06478929 46.09765625 0.4453125 C46.89937256 0.46770996 47.70108887 0.49010742 48.52709961 0.51318359 C58.58272257 0.99373126 66.9173876 3.96624666 74.09765625 11.1328125 C78.85859674 17.24401973 81.24226209 21.32409723 81.09765625 29.1328125 C80.10765625 29.1328125 79.11765625 29.1328125 78.09765625 29.1328125 C78.09765625 27.4828125 78.09765625 25.8328125 78.09765625 24.1328125 C77.43765625 24.1328125 76.77765625 24.1328125 76.09765625 24.1328125 C75.60265625 26.6078125 75.60265625 26.6078125 75.09765625 29.1328125 C74.10765625 29.1328125 73.11765625 29.1328125 72.09765625 29.1328125 C71.91015625 25.7578125 71.91015625 25.7578125 72.09765625 22.1328125 C73.08765625 21.4728125 74.07765625 20.8128125 75.09765625 20.1328125 C74.32285889 17.14128668 74.32285889 17.14128668 73.09765625 14.1328125 C69.80788817 13.03622314 68.38461858 13.33328112 65.09765625 14.1328125 C64.99224699 16.34363101 64.99224699 16.34363101 66.09765625 19.1328125 C65.43378906 19.02582031 64.76992188 18.91882813 64.0859375 18.80859375 C58.44074528 17.98901378 58.44074528 17.98901378 53.03515625 19.4453125 C50.29557614 21.8313984 50.13125998 22.83037892 49.72265625 26.5078125 C49.7101754 30.28494462 49.7101754 30.28494462 52.59765625 32.4453125 C53.42265625 33.0021875 54.24765625 33.5590625 55.09765625 34.1328125 C55.09765625 34.7928125 55.09765625 35.4528125 55.09765625 36.1328125 C53.70546875 36.2875 53.70546875 36.2875 52.28515625 36.4453125 C49.18271211 36.91053761 49.18271211 36.91053761 47.22265625 38.3828125 C45.72342734 40.71494636 45.87741719 42.41653075 46.09765625 45.1328125 C46.71640625 45.4009375 47.33515625 45.6690625 47.97265625 45.9453125 C50.09765625 47.1328125 50.09765625 47.1328125 52.09765625 50.1328125 C51.43765625 51.4528125 50.77765625 52.7728125 50.09765625 54.1328125 C49.72253906 53.54113281 49.34742188 52.94945312 48.9609375 52.33984375 C46.01410195 47.78969214 43.15325944 43.78285537 39.09765625 40.1328125 C38.14890625 39.2665625 37.20015625 38.4003125 36.22265625 37.5078125 C32.87297815 34.96205715 30.00338429 33.61698916 26.09765625 32.1328125 C26.09765625 31.4728125 26.09765625 30.8128125 26.09765625 30.1328125 C29.10797369 29.19857605 29.96415893 29.08831339 33.09765625 30.1328125 C35.16384374 30.04012745 35.16384374 30.04012745 37.28515625 29.6953125 C38.54328125 29.5096875 39.80140625 29.3240625 41.09765625 29.1328125 C41.36578125 28.1634375 41.63390625 27.1940625 41.91015625 26.1953125 C42.30203125 25.1846875 42.69390625 24.1740625 43.09765625 23.1328125 C44.08765625 22.8028125 45.07765625 22.4728125 46.09765625 22.1328125 C47.14657863 20.49649358 48.14672328 18.82795387 49.09765625 17.1328125 C49.75765625 16.4728125 50.41765625 15.8128125 51.09765625 15.1328125 C50.60265625 14.1428125 50.60265625 14.1428125 50.09765625 13.1328125 C52.07765625 13.1328125 54.05765625 13.1328125 56.09765625 13.1328125 C56.09765625 13.7928125 56.09765625 14.4528125 56.09765625 15.1328125 C56.75765625 14.8028125 57.41765625 14.4728125 58.09765625 14.1328125 C58.09765625 13.1428125 58.09765625 12.1528125 58.09765625 11.1328125 C59.06703125 10.8440625 60.03640625 10.5553125 61.03515625 10.2578125 C64.20429828 9.49066568 64.20429828 9.49066568 65.09765625 7.1328125 C63.11765625 7.7928125 61.13765625 8.4528125 59.09765625 9.1328125 C58.60265625 7.1528125 58.60265625 7.1528125 58.09765625 5.1328125 C56.30328125 5.1946875 56.30328125 5.1946875 54.47265625 5.2578125 C50.52032318 5.26963441 46.84953795 4.80403087 42.95703125 4.13671875 C34.77617253 2.9311636 26.71010601 2.86382752 18.453125 2.92700195 C15.94130531 2.94554393 13.42985056 2.94750893 10.91796875 2.94726562 C9.30859056 2.95217257 7.69921485 2.95799726 6.08984375 2.96484375 C5.34507782 2.96595657 4.60031189 2.9670694 3.83297729 2.96821594 C0.45251725 2.99923495 -2.67040295 3.07846149 -5.90234375 4.1328125 C-5.90234375 3.4728125 -5.90234375 2.8128125 -5.90234375 2.1328125 C-8.54234375 2.7928125 -11.18234375 3.4528125 -13.90234375 4.1328125 C-13.90234375 3.1428125 -13.90234375 2.1528125 -13.90234375 1.1328125 C-9.25341312 -0.04328928 -4.7603656 -0.011386 0 0 Z " fill="#D74F90" transform="translate(237.90234375,178.8671875)"/>
<path d="M0 0 C0.82183702 -0.00256327 1.64367404 -0.00512655 2.49041522 -0.0077675 C5.23588726 -0.01269698 7.98080568 0.00377363 10.72622681 0.02018738 C12.69752998 0.02103383 14.6688341 0.02055815 16.64013672 0.01885986 C21.98680129 0.0179992 27.33326392 0.03563662 32.67988157 0.05658174 C38.26926366 0.07533658 43.85865038 0.07709804 49.44805908 0.08065796 C60.03019494 0.08998191 70.61223781 0.1146005 81.19433272 0.14470643 C93.24259713 0.17823948 105.29086599 0.1947337 117.33916545 0.20979273 C142.121395 0.24114969 166.90354202 0.29391707 191.68569946 0.36076355 C191.35569946 1.35076355 191.02569946 2.34076355 190.68569946 3.36076355 C189.17961545 3.35938086 189.17961545 3.35938086 187.64310551 3.35797024 C163.24973359 3.33580349 138.85636298 3.31935341 114.46298313 3.30895138 C102.66669419 3.30378776 90.87041188 3.29674383 79.0741272 3.2853241 C68.79648949 3.27537925 58.5188566 3.2689106 48.24121422 3.26667506 C42.79568159 3.26536761 37.35016271 3.26227962 31.90463448 3.25503349 C26.78544737 3.24827642 21.66627976 3.24614595 16.54708862 3.24765587 C14.6624281 3.2473794 12.77776696 3.24537243 10.89311028 3.24155807 C8.3316851 3.2366257 5.77033478 3.23776356 3.20890808 3.24050903 C2.453086 3.23759619 1.69726393 3.23468335 0.91853815 3.23168224 C-2.48522718 2.9371046 -2.48522718 2.9371046 -5.31430054 4.36076355 C-6.98047169 4.40140187 -8.64818149 4.40348455 -10.31430054 4.36076355 C-10.31430054 5.35076355 -10.31430054 6.34076355 -10.31430054 7.36076355 C-10.95367554 7.46388855 -11.59305054 7.56701355 -12.25180054 7.67326355 C-12.93242554 7.90013855 -13.61305054 8.12701355 -14.31430054 8.36076355 C-14.64430054 9.35076355 -14.97430054 10.34076355 -15.31430054 11.36076355 C-17.37680054 12.54826355 -17.37680054 12.54826355 -19.31430054 13.36076355 C-19.31430054 15.34076355 -19.31430054 17.32076355 -19.31430054 19.36076355 C-20.96430054 19.36076355 -22.61430054 19.36076355 -24.31430054 19.36076355 C-25.18930054 17.29826355 -25.18930054 17.29826355 -25.31430054 14.36076355 C-19.54543357 5.13057641 -10.80031112 -0.12406628 0 0 Z " fill="#9E49B1" transform="translate(154.31430053710938,124.63923645019531)"/>
<path d="M0 0 C25.3306488 -0.11696466 50.66125694 -0.20505256 75.9921217 -0.25906086 C87.75452405 -0.28480791 99.5167583 -0.31989158 111.27905273 -0.37719727 C121.53483313 -0.42713929 131.79049173 -0.45931643 142.04639035 -0.47044247 C147.4734498 -0.47694292 152.90016092 -0.49214785 158.32710838 -0.52865028 C163.44317341 -0.5627804 168.55874915 -0.57301873 173.67491722 -0.56553841 C175.54488796 -0.56690538 177.41487635 -0.57673581 179.28474808 -0.59602737 C192.08427667 -0.72151853 204.78161009 -0.16177932 214.578125 9.34375 C221.69615311 17.63507944 224.65153942 26.56909899 223.85546875 37.41015625 C223.80683182 38.26306747 223.75819489 39.1159787 223.70808411 39.99473572 C223.55092464 42.68527916 223.36965887 45.37354553 223.1875 48.0625 C223.07586816 49.90029379 222.9658273 51.73818495 222.85742188 53.57617188 C222.58997786 58.05211634 222.30092344 62.52618682 222 67 C221.67 67 221.34 67 221 67 C219.96125267 58.53729623 220.03858276 50.31814917 220.4375 41.8125 C220.48970703 40.57435547 220.54191406 39.33621094 220.59570312 38.06054688 C220.72398801 35.04002092 220.85887493 32.01994859 221 29 C220.01 29 219.02 29 218 29 C218 28.34 218 27.68 218 27 C218.66 27 219.32 27 220 27 C219.67 26.01 219.34 25.02 219 24 C218.34 24.33 217.68 24.66 217 25 C215.02 19.06 215.02 19.06 213 13 C212.34 13.66 211.68 14.32 211 15 C210.34 15 209.68 15 209 15 C209 13.68 209 12.36 209 11 C207.8553125 11.2784375 207.8553125 11.2784375 206.6875 11.5625 C204 12 204 12 201 11 C201.33 10.01 201.66 9.02 202 8 C202.66 8 203.32 8 204 8 C204.33 7.34 204.66 6.68 205 6 C203.35 5.67 201.7 5.34 200 5 C200 4.34 200 3.68 200 3 C198.02 3.33 196.04 3.66 194 4 C194 3.01 194 2.02 194 1 C129.98 1 65.96 1 0 1 C0 0.67 0 0.34 0 0 Z " fill="#D8B6E8" transform="translate(152,124)"/>
<path d="M0 0 C0.639375 0.680625 1.27875 1.36125 1.9375 2.0625 C23.54162128 23.36488774 54.61817435 19.27073841 82.7890625 19.09375 C89.84204375 19.03562409 96.88943492 18.89814873 103.9375 18.625 C104.81092041 18.59422363 105.68434082 18.56344727 106.58422852 18.53173828 C121.03100868 17.85324778 132.49403326 13.8909743 144 5 C142.52307692 9.67692308 142.52307692 9.67692308 139.875 11.3125 C138.946875 11.6528125 138.946875 11.6528125 138 12 C138.99 12.99 138.99 12.99 140 14 C140.66 13.67 141.32 13.34 142 13 C142.99 13.99 142.99 13.99 144 15 C143.34 15.66 142.68 16.32 142 17 C140.32995171 16.68404492 138.66362417 16.34820041 137 16 C134.27497035 16.37722015 134.27497035 16.37722015 132 17 C131.67 17.99 131.34 18.98 131 20 C129.4221875 20.2165625 129.4221875 20.2165625 127.8125 20.4375 C124.24899911 20.90561867 124.24899911 20.90561867 121.78491211 21.53125 C118.06061278 22.1581155 114.39187955 22.10333482 110.62890625 22.0625 C109.82895737 22.05871338 109.02900848 22.05492676 108.20481873 22.05102539 C104.79850912 22.03474941 101.39232178 22.00660523 97.98608398 21.97949219 C95.49203044 21.96134841 92.99799663 21.94929187 90.50390625 21.9375 C89.7412294 21.92920166 88.97855255 21.92090332 88.19276428 21.91235352 C83.99961365 21.89322708 80.12381117 22.30982089 76 23 C74.23153623 22.91621407 72.46523322 22.76646392 70.70703125 22.55859375 C65.65798766 22.07123433 60.70201339 21.92830884 55.63671875 21.97265625 C54.90881134 21.97824554 54.18090393 21.98383484 53.43093872 21.98959351 C50.41891244 22.01684252 47.40709309 22.05200003 44.39526367 22.09594727 C42.16324098 22.12630029 39.93138278 22.14394692 37.69921875 22.16015625 C36.38783936 22.17699463 35.07645996 22.19383301 33.7253418 22.21118164 C29.87509005 21.99291912 26.66620732 21.15449799 23 20 C22.34 20 21.68 20 21 20 C21 19.34 21 18.68 21 18 C14.11175931 15.59009896 14.11175931 15.59009896 7 14 C7.33 13.01 7.66 12.02 8 11 C7.1028125 10.566875 7.1028125 10.566875 6.1875 10.125 C4 9 4 9 1 7 C0.3125 3.375 0.3125 3.375 0 0 Z " fill="#F2C794" transform="translate(176,312)"/>
<path d="M0 0 C0.33 0 0.66 0 1 0 C1.01030746 0.68301178 1.02061493 1.36602356 1.03123474 2.06973267 C1.13003194 8.56997433 1.23264728 15.07014388 1.33933926 21.570261 C1.39403519 24.9104225 1.44693545 28.25058929 1.49731445 31.59082031 C1.55574434 35.44863585 1.61922094 39.30634208 1.68359375 43.1640625 C1.70030624 44.33860992 1.71701874 45.51315735 1.73423767 46.72329712 C1.87628715 54.84324817 2.35161587 62.90553247 3 71 C3.11830421 72.52205551 3.11830421 72.52205551 3.23899841 74.07485962 C3.64535397 79.81792185 3.64535397 79.81792185 6 85 C6.99 85.33 7.98 85.66 9 86 C9 86.99 9 87.98 9 89 C10.485 88.505 10.485 88.505 12 88 C12.66 90.97 13.32 93.94 14 97 C15.65 97.33 17.3 97.66 19 98 C19 98.66 19 99.32 19 100 C20.98 99.505 20.98 99.505 23 99 C23 100.32 23 101.64 23 103 C26.96 102.01 26.96 102.01 31 101 C30.67 101.99 30.34 102.98 30 104 C51.66537297 104.7133105 73.33192797 105.37424363 95 106 C95 106.33 95 106.66 95 107 C88.53028232 107.02579604 82.06057833 107.04304919 75.59082031 107.05493164 C73.39940902 107.05989611 71.20800093 107.06666988 69.01660156 107.07543945 C57.93372917 107.11861288 46.86290281 107.10376361 35.7890625 106.609375 C34.98180725 106.57719376 34.174552 106.54501251 33.34283447 106.51185608 C27.33481877 106.20036654 22.26362374 105.03254042 17 102 C15.9275 101.401875 14.855 100.80375 13.75 100.1875 C7.14166825 94.93087247 2.0254314 88.29229483 0.63623047 79.76782227 C0.05905437 73.26674535 -0.31300624 66.77174639 -0.5625 60.25 C-0.6042334 59.15945313 -0.6459668 58.06890625 -0.68896484 56.9453125 C-1.36480444 37.92249685 -0.89678504 19.0089807 0 0 Z " fill="#E1A69C" transform="translate(179,214)"/>
<path d="M0 0 C11.70959883 0.0845428 23.41906351 0.1794801 35.12847042 0.28752708 C40.56617134 0.33737955 46.00385388 0.38371036 51.44165039 0.421875 C56.69371235 0.45886762 61.94561619 0.50526502 67.19754219 0.55806351 C69.19686662 0.57653337 71.19622486 0.59166839 73.19560051 0.60334396 C76.00548213 0.62033374 78.81500744 0.64939847 81.62475586 0.68115234 C82.44331558 0.68331253 83.26187531 0.68547272 84.10523987 0.68769836 C89.62459391 0.76688919 94.66202578 1.62210731 100 3 C101.08015334 3.20047723 101.08015334 3.20047723 102.18212795 3.4050045 C103.08197462 3.69952727 103.08197462 3.69952727 104 4 C105.25 6.5625 105.25 6.5625 106 9 C106.99 8.67 107.98 8.34 109 8 C109.495 8.99 109.495 8.99 110 10 C112.3306218 10.35179197 114.66435067 10.68330179 117 11 C119.4375 12.0625 119.4375 12.0625 121 13 C120.67 14.32 120.34 15.64 120 17 C120.66 17.33 121.32 17.66 122 18 C120.35 18.66 118.7 19.32 117 20 C116.40574219 19.49210937 115.81148438 18.98421875 115.19921875 18.4609375 C90.22399049 -2.28054289 56.63399489 2.83689356 25.875 2.9375 C23.15104314 2.94312245 20.42708466 2.94716317 17.703125 2.95117188 C11.13539607 2.96201106 4.56770258 2.97859719 -2 3 C-1.34 2.67 -0.68 2.34 0 2 C0 1.34 0 0.68 0 0 Z " fill="#C563AC" transform="translate(206,166)"/>
<path d="M0 0 C63.03 0 126.06 0 191 0 C190.67 0.99 190.34 1.98 190 3 C189.44148126 2.98872102 188.88296251 2.97744204 188.30751896 2.96582127 C158.31904433 2.36445156 128.3333678 1.90758711 98.33984375 1.68359375 C97.61503705 1.67818085 96.89023034 1.67276795 96.1434598 1.66719103 C87.31521984 1.60174039 78.48694918 1.54120548 69.65866148 1.48259127 C62.03002037 1.43181621 54.40140581 1.37745187 46.77279079 1.32291877 C31.18188532 1.21154096 15.59095487 1.10424955 0 1 C0 0.67 0 0.34 0 0 Z " fill="#8C57A8" transform="translate(155,125)"/>
<path d="M0 0 C1.29968468 -0.00218285 1.29968468 -0.00218285 2.62562561 -0.00440979 C5.42884718 -0.00664885 8.23194689 -0.00040166 11.03515625 0.0078125 C11.98495361 0.00969574 12.93475098 0.01157898 13.91333008 0.01351929 C35.81884323 0.06478929 35.81884323 0.06478929 46.09765625 0.4453125 C46.89937256 0.46770996 47.70108887 0.49010742 48.52709961 0.51318359 C54.35960321 0.79191282 59.57964439 2.26875552 65.09765625 4.1328125 C65.09765625 5.1228125 65.09765625 6.1128125 65.09765625 7.1328125 C63.11765625 7.7928125 61.13765625 8.4528125 59.09765625 9.1328125 C58.60265625 7.1528125 58.60265625 7.1528125 58.09765625 5.1328125 C56.30328125 5.1946875 56.30328125 5.1946875 54.47265625 5.2578125 C50.52032318 5.26963441 46.84953795 4.80403087 42.95703125 4.13671875 C34.77617253 2.9311636 26.71010601 2.86382752 18.453125 2.92700195 C15.94130531 2.94554393 13.42985056 2.94750893 10.91796875 2.94726562 C9.30859056 2.95217257 7.69921485 2.95799726 6.08984375 2.96484375 C5.34507782 2.96595657 4.60031189 2.9670694 3.83297729 2.96821594 C0.45251725 2.99923495 -2.67040295 3.07846149 -5.90234375 4.1328125 C-5.90234375 3.4728125 -5.90234375 2.8128125 -5.90234375 2.1328125 C-8.54234375 2.7928125 -11.18234375 3.4528125 -13.90234375 4.1328125 C-13.90234375 3.1428125 -13.90234375 2.1528125 -13.90234375 1.1328125 C-9.25341312 -0.04328928 -4.7603656 -0.011386 0 0 Z " fill="#D873B3" transform="translate(237.90234375,178.8671875)"/>
<path d="M0 0 C5.61959416 1.08211003 9.25973666 4.60278725 12.5625 9.15234375 C15.46337875 13.97340645 16.59633259 17.39447361 16 23 C15.01 23 14.02 23 13 23 C13 21.35 13 19.7 13 18 C12.34 18 11.68 18 11 18 C10.67 19.65 10.34 21.3 10 23 C9.01 23 8.02 23 7 23 C6.8125 19.625 6.8125 19.625 7 16 C7.99 15.34 8.98 14.68 10 14 C9.22520264 11.00847418 9.22520264 11.00847418 8 8 C4.71023192 6.90341064 3.28696233 7.20046862 0 8 C-0.10540926 10.21081851 -0.10540926 10.21081851 1 13 C-0.91924787 12.77065591 -2.8354406 12.51565657 -4.75 12.25 C-5.81734375 12.11078125 -6.8846875 11.9715625 -7.984375 11.828125 C-11.39974598 10.8902252 -12.75507663 9.68083082 -15 7 C-13.02 7 -11.04 7 -9 7 C-9 7.66 -9 8.32 -9 9 C-8.34 8.67 -7.68 8.34 -7 8 C-7 7.01 -7 6.02 -7 5 C-5.5459375 4.5978125 -5.5459375 4.5978125 -4.0625 4.1875 C-3.051875 3.795625 -2.04125 3.40375 -1 3 C-0.67 2.01 -0.34 1.02 0 0 Z " fill="#CA3399" transform="translate(303,185)"/>
<path d="M0 0 C0 3.52032428 -0.70351351 4.4385343 -3 7 C-3.66 7 -4.32 7 -5 7 C-4.34 7.66 -3.68 8.32 -3 9 C-2.34 8.67 -1.68 8.34 -1 8 C-0.34 8.66 0.32 9.32 1 10 C0.34 10.66 -0.32 11.32 -1 12 C-2.67004829 11.68404492 -4.33637583 11.34820041 -6 11 C-8.72502965 11.37722015 -8.72502965 11.37722015 -11 12 C-11.33 12.99 -11.66 13.98 -12 15 C-13.5778125 15.2165625 -13.5778125 15.2165625 -15.1875 15.4375 C-17.23872836 15.74014025 -19.29011897 16.06640834 -21.3112793 16.52905273 C-24.52783926 17.09245455 -27.56641193 17.11204224 -30.83203125 17.09765625 C-32.12431641 17.09443359 -33.41660156 17.09121094 -34.74804688 17.08789062 C-36.10286526 17.07953665 -37.45768297 17.07107172 -38.8125 17.0625 C-40.18684735 17.05748 -41.56119645 17.05291797 -42.93554688 17.04882812 C-46.29040924 17.03705668 -49.64518221 17.02061283 -53 17 C-52.505 15.515 -52.505 15.515 -52 14 C-51.3608667 13.98018066 -50.7217334 13.96036133 -50.06323242 13.93994141 C-47.10431367 13.84336503 -44.14597741 13.73423609 -41.1875 13.625 C-40.18267578 13.5940625 -39.17785156 13.563125 -38.14257812 13.53125 C-23.65422986 12.97221405 -10.86006274 10.25672593 0 0 Z " fill="#EAA387" transform="translate(319,317)"/>
<path d="M0 0 C0.33 0 0.66 0 1 0 C1.17015625 0.6290625 1.3403125 1.258125 1.515625 1.90625 C5.30286992 15.28247674 10.92478152 23.76582977 23 31 C25.65314077 32.21335262 28.2103071 33.12176334 31 34 C31 34.33 31 34.66 31 35 C23.25 35.125 23.25 35.125 21 34 C21 33.34 21 32.68 21 32 C20.071875 32 19.14375 32 18.1875 32 C14.56153877 32 11.4933876 31.96369313 8 31 C8.20625 30.236875 8.4125 29.47375 8.625 28.6875 C9.33391203 25.78114056 9.33391203 25.78114056 7 23 C5.824375 23.2475 5.824375 23.2475 4.625 23.5 C2 24 2 24 0 24 C0.12568359 23.14728516 0.12568359 23.14728516 0.25390625 22.27734375 C0.9180194 17.24185294 0.82543682 13.04433614 0 8 C-0.08503353 5.326168 -0.0469499 2.67614415 0 0 Z " fill="#EB8F67" transform="translate(208,256)"/>
<path d="M0 0 C0.66 0 1.32 0 2 0 C3.62651561 29.3252281 2.67067933 58.65749293 2 88 C1.67 88 1.34 88 1 88 C-0.29954866 70.58721999 -0.11839339 53.15769824 -0.06866455 35.70959473 C-0.05828358 31.67293834 -0.05383584 27.63627537 -0.04882812 23.59960938 C-0.03822527 15.73305526 -0.02124488 7.86653256 0 0 Z " fill="#BD4487" transform="translate(125,155)"/>
<path d="M0 0 C0.99 0.33 1.98 0.66 3 1 C3.625 2.7421875 3.625 2.7421875 4 4.875 C4.70656098 8.26890827 5.4843193 9.60411362 8 12 C7.67681543 13.33582956 7.34076199 14.66854585 7 16 C6.90800976 18.0400188 6.86998259 20.08291437 6.875 22.125 C6.87242187 23.17945313 6.86984375 24.23390625 6.8671875 25.3203125 C6.818471 27.97226654 6.818471 27.97226654 8 30 C7.67 30.66 7.34 31.32 7 32 C6.88055524 33.7865453 6.82277682 35.57736251 6.79467773 37.36767578 C6.77473251 38.48868683 6.75478729 39.60969788 6.73423767 40.76467896 C6.70916893 42.58659256 6.70916893 42.58659256 6.68359375 44.4453125 C6.66281265 45.68546112 6.64203156 46.92560974 6.62062073 48.20333862 C6.56622295 51.50111823 6.51599905 54.7989272 6.46777344 58.09680176 C6.41754766 61.46172653 6.36186723 64.8265605 6.30664062 68.19140625 C6.19938443 74.79419854 6.09762811 81.39705872 6 88 C5.67 88 5.34 88 5 88 C4.99191315 87.28384521 4.98382629 86.56769043 4.97549438 85.82983398 C4.89682575 79.00639348 4.80933282 72.18311388 4.71247292 65.35990906 C4.66299957 61.85391006 4.61667556 58.34793434 4.578125 54.84179688 C5.48931347 31.07595135 5.48931347 31.07595135 0.40869141 8.27734375 C-1.07840226 4.81759585 -1.16657295 3.49971884 0 0 Z " fill="#DA75B9" transform="translate(327,188)"/>
<path d="M0 0 C2.4375 1.25 2.4375 1.25 3.8125 3.875 C4.121875 5.050625 4.121875 5.050625 4.4375 6.25 C5.4275 5.92 6.4175 5.59 7.4375 5.25 C7.7675 5.91 8.0975 6.57 8.4375 7.25 C10.7681218 7.60179197 13.10185067 7.93330179 15.4375 8.25 C17.875 9.3125 17.875 9.3125 19.4375 10.25 C19.1075 11.57 18.7775 12.89 18.4375 14.25 C19.0975 14.58 19.7575 14.91 20.4375 15.25 C18.7875 15.91 17.1375 16.57 15.4375 17.25 C14.84324219 16.74210937 14.24898438 16.23421875 13.63671875 15.7109375 C3.41694072 7.22359463 -5.19476876 2.48263659 -18.5625 1.25 C-13.14522663 -3.67132581 -6.62361742 -1.39444577 0 0 Z " fill="#C774BD" transform="translate(307.5625,168.75)"/>
<path d="M0 0 C0.5775 0.66 1.155 1.32 1.75 2 C3.99653977 4.44290923 3.99653977 4.44290923 8 4 C8 4.66 8 5.32 8 6 C9.32 5.67 10.64 5.34 12 5 C12 6.32 12 7.64 12 9 C14.64 8.34 17.28 7.68 20 7 C19.67 7.99 19.34 8.98 19 10 C40.66537297 10.7133105 62.33192797 11.37424363 84 12 C84 12.33 84 12.66 84 13 C77.53028232 13.02579604 71.06057833 13.04304919 64.59082031 13.05493164 C62.39940902 13.05989611 60.20800093 13.06666988 58.01660156 13.07543945 C46.93372917 13.11861288 35.86290281 13.10376361 24.7890625 12.609375 C23.98180725 12.57719376 23.174552 12.54501251 22.34283447 12.51185608 C16.34179365 12.20072816 11.25174378 11.04386783 6 8 C5.08347656 7.48179687 5.08347656 7.48179687 4.1484375 6.953125 C1.33139102 5.21750395 -0.14039042 3.78941436 -2 1 C-1.34 0.67 -0.68 0.34 0 0 Z " fill="#F5CFAC" transform="translate(190,308)"/>
<path d="M0 0 C0.33 0 0.66 0 1 0 C1.06058594 0.69867188 1.12117188 1.39734375 1.18359375 2.1171875 C1.26738281 3.02726563 1.35117187 3.93734375 1.4375 4.875 C1.55931641 6.23238281 1.55931641 6.23238281 1.68359375 7.6171875 C1.86989285 10.01110861 1.86989285 10.01110861 3 12 C3.09755284 14.16622525 3.13077109 16.33548649 3.1328125 18.50390625 C3.13474609 20.45006836 3.13474609 20.45006836 3.13671875 22.43554688 C3.13462402 23.11222412 3.1325293 23.78890137 3.13037109 24.48608398 C3.12501202 26.55785415 3.13032518 28.62940839 3.13671875 30.70117188 C3.13542969 31.99732422 3.13414062 33.29347656 3.1328125 34.62890625 C3.13168457 35.82588135 3.13055664 37.02285645 3.12939453 38.25610352 C3 41 3 41 2 42 C1.84313751 43.55948542 1.74923361 45.12542668 1.68359375 46.69140625 C1.64169922 47.63564453 1.59980469 48.57988281 1.55664062 49.55273438 C1.51732422 50.54595703 1.47800781 51.53917969 1.4375 52.5625 C1.39431641 53.55958984 1.35113281 54.55667969 1.30664062 55.58398438 C1.20019702 58.0558415 1.09818072 60.5278031 1 63 C0.67 63 0.34 63 0 63 C-1.01010099 53.67439793 -1.15493103 44.42244461 -1.13037109 35.05566406 C-1.12502431 32.63600354 -1.13034091 30.21652983 -1.13671875 27.796875 C-1.14028298 18.48212489 -0.82653894 9.28397155 0 0 Z " fill="#BF7CBC" transform="translate(374,177)"/>
<path d="M0 0 C0.99 0 1.98 0 3 0 C1.52372869 6.08961917 -3.54525804 9.86819221 -8.67007446 13.0305481 C-13.94784292 15.93070841 -18.14429533 16.556981 -24.109375 16.42578125 C-24.95743713 16.42249313 -25.80549927 16.41920502 -26.67926025 16.41581726 C-29.37004343 16.40019258 -32.05954443 16.35627674 -34.75 16.3125 C-36.53905213 16.30099015 -38.32811627 16.29121048 -40.1171875 16.28320312 C-49.11609089 16.21990523 -58.04492637 15.97253288 -67 15 C-67 14.67 -67 14.34 -67 14 C-62.77123165 13.80267836 -58.54198062 13.61885941 -54.3125 13.4375 C-53.11431641 13.38142578 -51.91613281 13.32535156 -50.68164062 13.26757812 C-49.52470703 13.21923828 -48.36777344 13.17089844 -47.17578125 13.12109375 C-46.11270752 13.0739624 -45.04963379 13.02683105 -43.9543457 12.97827148 C-41.13588025 12.99900063 -38.74571472 13.41670196 -36 14 C-34.38038502 14.07649781 -32.75810555 14.10811681 -31.13671875 14.09765625 C-30.25048828 14.09443359 -29.36425781 14.09121094 -28.45117188 14.08789062 C-27.53916016 14.07951172 -26.62714844 14.07113281 -25.6875 14.0625 C-24.75615234 14.05798828 -23.82480469 14.05347656 -22.86523438 14.04882812 C-20.57675627 14.03709234 -18.28841192 14.02067363 -16 14 C-15.67 13.34 -15.34 12.68 -15 12 C-13.35 12 -11.7 12 -10 12 C-9.67 11.01 -9.34 10.02 -9 9 C-8.360625 8.855625 -7.72125 8.71125 -7.0625 8.5625 C-4.79688294 8.19895007 -4.79688294 8.19895007 -3.75 5.9375 C-3.5025 5.298125 -3.255 4.65875 -3 4 C-2.01 4 -1.02 4 0 4 C0 2.68 0 1.36 0 0 Z " fill="#D88774" transform="translate(368,359)"/>
<path d="M0 0 C0 0.66 0 1.32 0 2 C3.96 2.33 7.92 2.66 12 3 C4.53704565 8.59721577 -2.24416006 8.27833176 -11.27734375 8.1953125 C-12.4438295 8.1924826 -13.61031525 8.18965271 -14.81214905 8.18673706 C-18.52070576 8.17558388 -22.22901685 8.15048786 -25.9375 8.125 C-28.45898088 8.11496393 -30.98046555 8.10583918 -33.50195312 8.09765625 C-39.6680519 8.07566044 -45.83400839 8.04223118 -52 8 C-52 7.67 -52 7.34 -52 7 C-39.13 7 -26.26 7 -13 7 C-13 6.34 -13 5.68 -13 5 C-12.01 5 -11.02 5 -10 5 C-10 5.66 -10 6.32 -10 7 C-7.69 6.34 -5.38 5.68 -3 5 C-3.66 4.01 -4.32 3.02 -5 2 C-2 0 -2 0 0 0 Z " fill="#E68263" transform="translate(292,312)"/>
<path d="M0 0 C-0.474375 0.4125 -0.94875 0.825 -1.4375 1.25 C-3.16266518 3.182185 -3.56584875 4.48192275 -4 7 C-6.31 6.67 -8.62 6.34 -11 6 C-11.433125 7.11375 -11.433125 7.11375 -11.875 8.25 C-14.50545455 14.68 -14.50545455 14.68 -17.125 16.375 C-17.74375 16.91125 -18.3625 17.4475 -19 18 C-19.04080783 19.99958364 -19.04254356 22.00045254 -19 24 C-19.99 24.66 -20.98 25.32 -22 26 C-22.09371861 18.08747197 -21.2333943 12.90926073 -15.8984375 6.91015625 C-15.27195313 6.27980469 -14.64546875 5.64945313 -14 5 C-13.47664062 4.46246094 -12.95328125 3.92492187 -12.4140625 3.37109375 C-8.87874628 0.08830012 -4.65474119 -2.32737059 0 0 Z " fill="#D96CA7" transform="translate(203,184)"/>
<path d="M0 0 C0.33 0.66 0.66 1.32 1 2 C-3.1196377 3.29243536 -6.66831683 4.26252625 -11 4 C-11 4.99 -11 5.98 -11 7 C-11.639375 7.103125 -12.27875 7.20625 -12.9375 7.3125 C-13.618125 7.539375 -14.29875 7.76625 -15 8 C-15.33 8.99 -15.66 9.98 -16 11 C-18.0625 12.1875 -18.0625 12.1875 -20 13 C-20 14.98 -20 16.96 -20 19 C-21.65 19 -23.3 19 -25 19 C-25.875 16.9375 -25.875 16.9375 -26 14 C-19.98450266 4.37520426 -11.18318286 -0.67099097 0 0 Z " fill="#BE7DC4" transform="translate(155,125)"/>
<path d="M0 0 C3.08303472 1.76738071 5.55433714 3.77989012 8.1328125 6.22265625 C7.8028125 6.88265625 7.4728125 7.54265625 7.1328125 8.22265625 C6.4728125 8.22265625 5.8128125 8.22265625 5.1328125 8.22265625 C5.1328125 7.23265625 5.1328125 6.24265625 5.1328125 5.22265625 C3.8128125 4.89265625 2.4928125 4.56265625 1.1328125 4.22265625 C1.1328125 3.56265625 1.1328125 2.90265625 1.1328125 2.22265625 C-0.85286458 2.28776042 -2.83854167 2.35286458 -4.82421875 2.41796875 C-6.8671875 2.22265625 -6.8671875 2.22265625 -9.8671875 0.22265625 C-12.11841247 -0.05565847 -12.11841247 -0.05565847 -14.4921875 0.03515625 C-15.28882813 0.04160156 -16.08546875 0.04804688 -16.90625 0.0546875 C-18.87008484 0.01082727 -18.87008484 0.01082727 -19.8671875 1.22265625 C-22.14702626 1.7535776 -24.43912834 2.18583596 -26.73828125 2.625 C-29.0604533 3.08947668 -29.0604533 3.08947668 -30.8671875 5.22265625 C-33.4921875 5.34765625 -33.4921875 5.34765625 -35.8671875 5.22265625 C-33.72665692 2.88145093 -31.72053711 1.47029034 -28.8671875 0.09765625 C-28.1865625 -0.23492187 -27.5059375 -0.5675 -26.8046875 -0.91015625 C-18.40672515 -4.66892166 -8.22966686 -3.78890603 0 0 Z " fill="#D6708E" transform="translate(264.8671875,221.77734375)"/>
<path d="M0 0 C0.33 0 0.66 0 1 0 C2.24089969 11.65412889 3.36329088 22.91459235 2.22265625 34.609375 C1.91273288 39.32890988 2.34123837 43.89202201 2.84375 48.5859375 C2.8953125 49.38257813 2.946875 50.17921875 3 51 C2.505 51.495 2.505 51.495 2 52 C1.76924918 53.34747084 1.58846937 54.70377565 1.4375 56.0625 C1.2209375 58.0115625 1.2209375 58.0115625 1 60 C0.67 60 0.34 60 0 60 C0 40.2 0 20.4 0 0 Z " fill="#C94481" transform="translate(333,221)"/>
<path d="M0 0 C0.33 0 0.66 0 1 0 C1 16.17 1 32.34 1 49 C-2.28264928 45.71735072 -1.99841711 41.95613412 -2.00585938 37.46069336 C-1.95236328 36.18331299 -1.89886719 34.90593262 -1.84375 33.58984375 C-1.81776733 32.89991837 -1.79178467 32.20999298 -1.76501465 31.49916077 C-1.68245664 29.31166741 -1.59218526 27.12460744 -1.5 24.9375 C-1.37863032 22.05099863 -1.26512559 19.16434031 -1.15625 16.27734375 C-1.10275391 15.00109131 -1.04925781 13.72483887 -0.99414062 12.40991211 C-0.99929874 9.40810215 -1.39900883 6.91682348 -2 4 C-1.0625 1.6875 -1.0625 1.6875 0 0 Z " fill="#C86A6B" transform="translate(166,223)"/>
<path d="M0 0 C1 2 1 2 0.0625 5.125 C-0.4634375 6.548125 -0.4634375 6.548125 -1 8 C-1.66 8 -2.32 8 -3 8 C-3.268125 8.598125 -3.53625 9.19625 -3.8125 9.8125 C-6.35822914 14.50200105 -9.00576847 15.37144624 -14 17 C-14.33 17.66 -14.66 18.32 -15 19 C-18.22477753 20.17600832 -21.34803656 20.10299956 -24.75 20.0625 C-25.73484375 20.05347656 -26.7196875 20.04445313 -27.734375 20.03515625 C-28.48203125 20.02355469 -29.2296875 20.01195312 -30 20 C-30 19.67 -30 19.34 -30 19 C-29.23816406 18.85304688 -28.47632813 18.70609375 -27.69140625 18.5546875 C-21.07890632 17.11826429 -16.16224824 15.28696708 -10.7421875 11.20703125 C-9 10 -9 10 -7 10 C-6.34 8.68 -5.68 7.36 -5 6 C-4.34 6 -3.68 6 -3 6 C-2.690625 5.195625 -2.38125 4.39125 -2.0625 3.5625 C-1 1 -1 1 0 0 Z " fill="#E8A594" transform="translate(285,272)"/>
<path d="M0 0 C1.98 1.65 3.96 3.3 6 5 C5.67 5.66 5.34 6.32 5 7 C2.4375 7.625 2.4375 7.625 0 8 C-0.10540926 10.21081851 -0.10540926 10.21081851 1 13 C-0.91924787 12.77065591 -2.8354406 12.51565657 -4.75 12.25 C-5.81734375 12.11078125 -6.8846875 11.9715625 -7.984375 11.828125 C-11.39974598 10.8902252 -12.75507663 9.68083082 -15 7 C-13.02 7 -11.04 7 -9 7 C-9 7.66 -9 8.32 -9 9 C-8.34 8.67 -7.68 8.34 -7 8 C-7 7.01 -7 6.02 -7 5 C-5.5459375 4.5978125 -5.5459375 4.5978125 -4.0625 4.1875 C-3.051875 3.795625 -2.04125 3.40375 -1 3 C-0.67 2.01 -0.34 1.02 0 0 Z " fill="#CE35A0" transform="translate(303,185)"/>
<path d="M0 0 C0.70769531 0.00128906 1.41539062 0.00257813 2.14453125 0.00390625 C7.90729633 0.10887465 13.01039819 1.14602619 18.375 3.3125 C18.375 4.3025 18.375 5.2925 18.375 6.3125 C16.395 6.9725 14.415 7.6325 12.375 8.3125 C12.045 6.9925 11.715 5.6725 11.375 4.3125 C10.17875 4.35375 8.9825 4.395 7.75 4.4375 C1.21176721 4.45842234 -5.18357623 3.33872968 -11.625 2.3125 C-7.92362186 -0.06966901 -4.26238113 -0.03186827 0 0 Z " fill="#C64EA6" transform="translate(284.625,179.6875)"/>
<path d="M0 0 C1.32 0 2.64 0 4 0 C4 0.99 4 1.98 4 3 C4.886875 2.773125 5.77375 2.54625 6.6875 2.3125 C10 2 10 2 12.21875 3.46875 C15.78658064 5.43306125 18.85922461 5.33503851 22.8125 5.1875 C23.50537109 5.17396484 24.19824219 5.16042969 24.91210938 5.14648438 C26.60841265 5.11138845 28.30431136 5.05758943 30 5 C30 4.34 30 3.68 30 3 C32.475 3.495 32.475 3.495 35 4 C31.00421222 7.99578778 25.65963785 8.1782859 20.25 8.375 C14.07970614 8.26634074 8.42442386 7.01460263 3 4 C1.19140625 1.859375 1.19140625 1.859375 0 0 Z " fill="#E69E8E" transform="translate(230,273)"/>
<path d="M0 0 C0.33 0 0.66 0 1 0 C1.17015625 0.60585938 1.3403125 1.21171875 1.515625 1.8359375 C3.11462832 7.36440643 5.00140608 12.55039765 7.42578125 17.7734375 C8 20 8 20 7.10546875 22.2890625 C6.74066406 22.85367187 6.37585938 23.41828125 6 24 C4.02 24 2.04 24 0 24 C0.12568359 23.14728516 0.12568359 23.14728516 0.25390625 22.27734375 C0.9180194 17.24185294 0.82543682 13.04433614 0 8 C-0.08503353 5.326168 -0.0469499 2.67614415 0 0 Z " fill="#EB8363" transform="translate(208,256)"/>
<path d="M0 0 C0.66 0 1.32 0 2 0 C2 0.99 2 1.98 2 3 C2.66 3 3.32 3 4 3 C6.66514806 17.59681093 6.66514806 17.59681093 4 25 C4.99 25.33 5.98 25.66 7 26 C6.01 28.475 6.01 28.475 5 31 C4.01 31 3.02 31 2 31 C2.03480469 29.15148437 2.03480469 29.15148437 2.0703125 27.265625 C2.19065217 17.96656534 2.04108607 9.13021538 0 0 Z " fill="#D8607D" transform="translate(289,233)"/>
<path d="M0 0 C2.94545056 2.43319829 3.32286717 4.32413607 4 8 C4.66 8.33 5.32 8.66 6 9 C6 10.32 6 11.64 6 13 C6.99 13 7.98 13 9 13 C10.25664978 15.90600261 11 17.79604584 11 21 C7.4954725 20.02652014 6.11142587 19.14007823 3.8125 16.25 C0.69564435 10.66115539 -0.25632243 6.40806082 0 0 Z " fill="#F2BF87" transform="translate(125,344)"/>
<path d="M0 0 C0.33 0 0.66 0 1 0 C1.03738281 0.82242187 1.07476562 1.64484375 1.11328125 2.4921875 C1.66254437 11.81889068 2.79541358 20.06920165 8 28 C8 28.66 8 29.32 8 30 C6.35 30 4.7 30 3 30 C1.10120344 26.07582044 0.60979057 22.46630934 0.24609375 18.18359375 C0.06659344 16.02566676 0.06659344 16.02566676 -0.5546875 14.11328125 C-1.16169248 11.23266991 -0.84841152 8.67265112 -0.5625 5.75 C-0.46066406 4.67234375 -0.35882813 3.5946875 -0.25390625 2.484375 C-0.17011719 1.66453125 -0.08632812 0.8446875 0 0 Z " fill="#EDB78E" transform="translate(168,282)"/>
<path d="M0 0 C1 3 1 3 0.3984375 4.83203125 C-2.75333215 10.93106642 -6.17018853 16.11345902 -12 20 C-12.66 19.67 -13.32 19.34 -14 19 C-14 18.34 -14 17.68 -14 17 C-13.34 17 -12.68 17 -12 17 C-11.67 16.01 -11.34 15.02 -11 14 C-10.01 14 -9.02 14 -8 14 C-8 13.01 -8 12.02 -8 11 C-7.34 11 -6.68 11 -6 11 C-6 10.01 -6 9.02 -6 8 C-5.34 8 -4.68 8 -4 8 C-4.33 6.68 -4.66 5.36 -5 4 C-4.34 3.67 -3.68 3.34 -3 3 C-2.67 2.67 -2.34 2.34 -2 2 C-1.34 1.34 -0.68 0.68 0 0 Z " fill="#E28E8A" transform="translate(279,257)"/>
<path d="M0 0 C3.24638016 2.89855371 4.81736608 5.33857517 6.25 9.4375 C6.58515625 10.36433594 6.9203125 11.29117188 7.265625 12.24609375 C7.99117968 14.96692378 8.14228057 17.20012165 8 20 C7.731875 19.443125 7.46375 18.88625 7.1875 18.3125 C5.89877353 15.80287477 4.47073522 13.40665764 3 11 C2.01 11.495 2.01 11.495 1 12 C0.01 8.37 -0.98 4.74 -2 1 C-1.34 0.67 -0.68 0.34 0 0 Z " fill="#A080D2" transform="translate(368,137)"/>
<path d="M0 0 C0.99 0 1.98 0 3 0 C3 0.66 3 1.32 3 2 C6.63 2 10.26 2 14 2 C14 2.33 14 2.66 14 3 C-3.49 3 -20.98 3 -39 3 C-39 2.67 -39 2.34 -39 2 C-26.13 2 -13.26 2 0 2 C0 1.34 0 0.68 0 0 Z " fill="#E3A37A" transform="translate(279,317)"/>
<path d="M0 0 C0.99 0.33 1.98 0.66 3 1 C2.01 2.485 2.01 2.485 1 4 C0.34 4 -0.32 4 -1 4 C-1.33 4.66 -1.66 5.32 -2 6 C-2.99 6 -3.98 6 -5 6 C-5.309375 6.61875 -5.61875 7.2375 -5.9375 7.875 C-6.625 9.25 -7.3125 10.625 -8 12 C-9.32 12 -10.64 12 -12 12 C-11.67 10.68 -11.34 9.36 -11 8 C-10.34 8 -9.68 8 -9 8 C-9 6.68 -9 5.36 -9 4 C-7.6078125 3.566875 -7.6078125 3.566875 -6.1875 3.125 C-2.90208333 2.1125 -2.90208333 2.1125 0 0 Z " fill="#DE526D" transform="translate(238,223)"/>
<path d="M0 0 C1.65 0.33 3.3 0.66 5 1 C3.03378198 2.48889561 1.0635883 3.9560065 -0.96484375 5.359375 C-5.75883235 8.73889964 -8.83773694 12.05896397 -12 17 C-12.66 16.01 -13.32 15.02 -14 14 C-13.34 14 -12.68 14 -12 14 C-11.938125 13.236875 -11.87625 12.47375 -11.8125 11.6875 C-11 9 -11 9 -8.5 7.3125 C-7.675 6.879375 -6.85 6.44625 -6 6 C-5.67 5.34 -5.34 4.68 -5 4 C-4.01 4 -3.02 4 -2 4 C-2 3.34 -2 2.68 -2 2 C-1.34 2 -0.68 2 0 2 C0 1.34 0 0.68 0 0 Z " fill="#DF89A2" transform="translate(227,211)"/>
<path d="M0 0 C0.99 0 1.98 0 3 0 C1.46997067 6.31137097 -3.91996226 10.04856815 -9.1640625 13.37109375 C-14.26765952 16.13315281 -14.26765952 16.13315281 -17.234375 15.59375 C-17.81703125 15.3978125 -18.3996875 15.201875 -19 15 C-18.01 14.67 -17.02 14.34 -16 14 C-15.67 13.34 -15.34 12.68 -15 12 C-13.35 12 -11.7 12 -10 12 C-9.67 11.01 -9.34 10.02 -9 9 C-8.360625 8.855625 -7.72125 8.71125 -7.0625 8.5625 C-4.79688294 8.19895007 -4.79688294 8.19895007 -3.75 5.9375 C-3.37875 4.9784375 -3.37875 4.9784375 -3 4 C-2.01 4 -1.02 4 0 4 C0 2.68 0 1.36 0 0 Z " fill="#E8A1AA" transform="translate(368,359)"/>
<path d="M0 0 C1.32 0.33 2.64 0.66 4 1 C4 1.99 4 2.98 4 4 C4.99 3.67 5.98 3.34 7 3 C7.33 4.98 7.66 6.96 8 9 C6.35 9.33 4.7 9.66 3 10 C0.64551835 7.44931155 0.01672076 6.28982642 -0.1875 2.75 C-0.125625 1.8425 -0.06375 0.935 0 0 Z " fill="#EDB388" transform="translate(184,299)"/>
<path d="M0 0 C2.97 0.495 2.97 0.495 6 1 C6 1.66 6 2.32 6 3 C4.35 3 2.7 3 1 3 C0.67 3.99 0.34 4.98 0 6 C-6.6 6 -13.2 6 -20 6 C-19.67 5.34 -19.34 4.68 -19 4 C-13.39 4 -7.78 4 -2 4 C-1.34 2.68 -0.68 1.36 0 0 Z " fill="#DD6361" transform="translate(352,368)"/>
<path d="M0 0 C4.54399639 4.08577827 5.84289872 9.27036519 6.1875 15.2578125 C6.1875 18.17818184 6.13326882 21.08289368 6 24 C5.67 24 5.34 24 5 24 C4.87882812 23.27554688 4.75765625 22.55109375 4.6328125 21.8046875 C3.74878647 16.70453734 2.78374764 11.87557689 1 7 C0.2661825 4.43163876 0 2.71359931 0 0 Z " fill="#DF8B9D" transform="translate(275,232)"/>
<path d="M0 0 C0.33 1.32 0.66 2.64 1 4 C0.34 4 -0.32 4 -1 4 C-0.67 5.65 -0.34 7.3 0 9 C-2.31 10.98 -4.62 12.96 -7 15 C-7.33 14.34 -7.66 13.68 -8 13 C-7.109375 10.72265625 -7.109375 10.72265625 -5.75 8.0625 C-5.31171875 7.18722656 -4.8734375 6.31195313 -4.421875 5.41015625 C-3.12702335 3.21531155 -1.89036879 1.68465218 0 0 Z " fill="#DF838B" transform="translate(228,227)"/>
<path d="M0 0 C2.35981813 0.93578995 4.69631264 1.93347808 7 3 C6.67 4.32 6.34 5.64 6 7 C6.66 7.33 7.32 7.66 8 8 C5.625 9.0625 5.625 9.0625 3 10 C2.34 9.67 1.68 9.34 1 9 C0.65977214 7.00116131 0.32670903 5.00109278 0 3 C-0.66 2.34 -1.32 1.68 -2 1 C-1.34 0.67 -0.68 0.34 0 0 Z " fill="#BA3AA8" transform="translate(320,176)"/>
<path d="M0 0 C-0.556875 0.27457031 -1.11375 0.54914063 -1.6875 0.83203125 C-3.28351542 1.63812688 -4.86635424 2.4706636 -6.4375 3.32421875 C-7.283125 3.77410156 -8.12875 4.22398437 -9 4.6875 C-9.845625 5.14511719 -10.69125 5.60273438 -11.5625 6.07421875 C-14.25693871 7.0975873 -15.3528359 7.01106962 -18 6 C-17 3 -17 3 -15.21484375 2.05078125 C-9.92037753 0.3343934 -5.56359492 -0.30346881 0 0 Z " fill="#D46AAF" transform="translate(203,170)"/>
<path d="M0 0 C0.33 0 0.66 0 1 0 C1.33 12.21 1.66 24.42 2 37 C-1.22997899 33.77002101 -0.99295323 30.08425238 -1.02172852 25.65673828 C-0.97459717 24.47321777 -0.92746582 23.28969727 -0.87890625 22.0703125 C-0.83056641 20.78125 -0.78222656 19.4921875 -0.73242188 18.1640625 C-0.67591408 16.81770275 -0.61927179 15.47134864 -0.5625 14.125 C-0.50920597 12.75522999 -0.45646622 11.3854383 -0.40429688 10.015625 C-0.27497734 6.67682977 -0.14002445 3.33836059 0 0 Z " fill="#DA6260" transform="translate(165,235)"/>
<path d="M0 0 C0.99 0.33 1.98 0.66 3 1 C3 2.32 3 3.64 3 5 C2.34 5.45375 1.68 5.9075 1 6.375 C0.01 7.179375 0.01 7.179375 -1 8 C-1.04080783 9.99958364 -1.04254356 12.00045254 -1 14 C-1.99 14.66 -2.98 15.32 -4 16 C-3.91256669 14.08249714 -3.8043811 12.16593335 -3.6875 10.25 C-3.62949219 9.18265625 -3.57148438 8.1153125 -3.51171875 7.015625 C-2.96909846 3.8178932 -2.14928855 2.37401309 0 0 Z " fill="#D2598B" transform="translate(185,194)"/>
<path d="M0 0 C0.7425 0.2475 1.485 0.495 2.25 0.75 C1.445625 1.36875 0.64125 1.9875 -0.1875 2.625 C-2.78874519 4.49164041 -2.78874519 4.49164041 -3.75 6.75 C-4.0552622 11.40275976 -4.0552622 11.40275976 -2.75 15.75 C-4.07 15.42 -5.39 15.09 -6.75 14.75 C-7.37004175 4.76043841 -7.37004175 4.76043841 -5.0625 1 C-2.75 -0.25 -2.75 -0.25 0 0 Z " fill="#D86DAD" transform="translate(291.75,195.25)"/>
<path d="M0 0 C2.31 0.66 4.62 1.32 7 2 C7 2.99 7 3.98 7 5 C6.34 5 5.68 5 5 5 C5 6.32 5 7.64 5 9 C4.01 9.33 3.02 9.66 2 10 C0 3.375 0 3.375 0 0 Z " fill="#D3378A" transform="translate(168,184)"/>
<path d="M0 0 C6.20988129 0.44356295 10.60540561 1.91532502 16 5 C14.35 6.32 12.7 7.64 11 9 C10.67 8.34 10.34 7.68 10 7 C10.33 6.34 10.66 5.68 11 5 C9.35 4.67 7.7 4.34 6 4 C6 3.34 6 2.68 6 2 C4.02 2.33 2.04 2.66 0 3 C0 2.01 0 1.02 0 0 Z " fill="#957ECA" transform="translate(346,125)"/>
<path d="M0 0 C0.33 0.66 0.66 1.32 1 2 C-2.75737383 3.17417932 -6.26852228 4.09560267 -10.1875 4.5 C-13.40390446 4.92182354 -15.30434937 5.31521836 -18 7 C-13.64556437 -0.01547963 -7.56450429 -0.45387026 0 0 Z " fill="#BE85C9" transform="translate(155,125)"/>
<path d="M0 0 C0.66 0 1.32 0 2 0 C1.38722388 2.96175123 0.74627478 4.38058783 -1 7 C-3 7.625 -3 7.625 -5 8 C-5.99 8.495 -5.99 8.495 -7 9 C-6.25 6.5625 -6.25 6.5625 -5 4 C-2.9375 3.375 -2.9375 3.375 -1 3 C-0.67 2.01 -0.34 1.02 0 0 Z M-8 9 C-7.34 9.66 -6.68 10.32 -6 11 C-7.32 11.99 -8.64 12.98 -10 14 C-10.33 13.01 -10.66 12.02 -11 11 C-10.01 10.34 -9.02 9.68 -8 9 Z " fill="#E2655C" transform="translate(325,313)"/>
<path d="M0 0 C0.33 0.66 0.66 1.32 1 2 C2.98 1.67 4.96 1.34 7 1 C6.6189482 3.76262553 6.16402868 4.84143894 4.125 6.8125 C3.42375 7.204375 2.7225 7.59625 2 8 C1.01 7.67 0.02 7.34 -1 7 C-1.04254356 5.00045254 -1.04080783 2.99958364 -1 1 C-0.67 0.67 -0.34 0.34 0 0 Z " fill="#D3529F" transform="translate(177,176)"/>
<path d="M0 0 C0 3.52032428 -0.70351351 4.4385343 -3 7 C-3.66 7 -4.32 7 -5 7 C-4.34 7.66 -3.68 8.32 -3 9 C-2.34 8.67 -1.68 8.34 -1 8 C-0.34 8.66 0.32 9.32 1 10 C0.34 10.66 -0.32 11.32 -1 12 C-3.31 11.34 -5.62 10.68 -8 10 C-6.5682479 4.98886765 -4.01554307 3.05530451 0 0 Z " fill="#E6715F" transform="translate(319,317)"/>
<path d="M0 0 C9.32142857 9.0625 9.32142857 9.0625 10 15 C9.01 14.34 8.02 13.68 7 13 C7.33 12.34 7.66 11.68 8 11 C7.1028125 10.566875 7.1028125 10.566875 6.1875 10.125 C4 9 4 9 1 7 C0.3125 3.375 0.3125 3.375 0 0 Z " fill="#F2BF89" transform="translate(176,312)"/>
<path d="M0 0 C0.66 0.66 1.32 1.32 2 2 C3.31747324 2.69748583 4.64914193 3.36959957 6 4 C6 4.66 6 5.32 6 6 C5.07380859 5.69255859 5.07380859 5.69255859 4.12890625 5.37890625 C-1.62710276 3.54784707 -6.97978316 2.48550136 -13 2 C-9.28062168 -2.04280252 -4.93851046 -1.26799593 0 0 Z " fill="#CA74BC" transform="translate(302,168)"/>
<path d="M0 0 C1.5416294 4.66655386 -0.00036757 7.71003967 -2 12 C-3.58887201 14.69417428 -4.2325472 15.73687333 -7.1875 16.75 C-8.0846875 16.87375 -8.0846875 16.87375 -9 17 C-7.66392467 14.22269525 -6.17801789 11.64603364 -4.5 9.0625 C-2.6398131 6.1268068 -1.13537479 3.30290849 0 0 Z " fill="#E29595" transform="translate(329,300)"/>
<path d="M0 0 C1 2 1 2 0.0625 5.125 C-0.288125 6.07375 -0.63875 7.0225 -1 8 C-1.66 8 -2.32 8 -3 8 C-3.2475 8.598125 -3.495 9.19625 -3.75 9.8125 C-5.16370012 12.28647521 -6.65055383 13.43370255 -9 15 C-8.25 11.625 -8.25 11.625 -7 8 C-5 6.875 -5 6.875 -3 6 C-1.78130071 3.49552484 -1.78130071 3.49552484 -1 1 C-0.67 0.67 -0.34 0.34 0 0 Z " fill="#E68F86" transform="translate(285,272)"/>
<path d="M0 0 C-0.33 0.66 -0.66 1.32 -1 2 C-2.99609375 2.5625 -2.99609375 2.5625 -5.4375 3 C-9.13840398 3.62251162 -9.13840398 3.62251162 -12 6 C-14.625 6.125 -14.625 6.125 -17 6 C-12.29676092 0.93273313 -6.90888049 -2.07266415 0 0 Z " fill="#D76986" transform="translate(246,221)"/>
<path d="M0 0 C0.33 0 0.66 0 1 0 C1.18175781 0.65226562 1.36351562 1.30453125 1.55078125 1.9765625 C2.71470658 6.02344135 3.81154637 9.64908634 5.8125 13.375 C7 16 7 16 6.1875 18.375 C5.795625 18.91125 5.40375 19.4475 5 20 C5 18.68 5 17.36 5 16 C4.34 16 3.68 16 3 16 C-0.42724441 10.85913339 -0.1015597 5.99202204 0 0 Z " fill="#E8A596" transform="translate(208,256)"/>
<path d="M0 0 C0.66 0.33 1.32 0.66 2 1 C1.67 3.31 1.34 5.62 1 8 C0.34 8 -0.32 8 -1 8 C-0.67 9.32 -0.34 10.64 0 12 C-1.98 12.99 -1.98 12.99 -4 14 C-3.52372025 12.04096255 -3.04388577 10.08278903 -2.5625 8.125 C-2.29566406 7.03445313 -2.02882813 5.94390625 -1.75390625 4.8203125 C-1 2 -1 2 0 0 Z " fill="#DE5764" transform="translate(332,296)"/>
<path d="M0 0 C0.66 0 1.32 0 2 0 C2.33 0.66 2.66 1.32 3 2 C3.99 2.33 4.98 2.66 6 3 C6.66 3.66 7.32 4.32 8 5 C8.99 5.66 9.98 6.32 11 7 C11.6875 9.125 11.6875 9.125 12 11 C10 10 8 9 6 8 C4.0040278 7.32136945 2.00431449 6.65358081 0 6 C0.66 5.34 1.32 4.68 2 4 C1.34 2.68 0.68 1.36 0 0 Z " fill="#D65278" transform="translate(264,224)"/>
<path d="M0 0 C1.65 0.33 3.3 0.66 5 1 C5.08075665 3.29109597 5.13907731 5.58299267 5.1875 7.875 C5.22230469 9.15117187 5.25710938 10.42734375 5.29296875 11.7421875 C5.19628906 12.81726563 5.09960938 13.89234375 5 15 C2 17 2 17 -0.1875 16.625 C-1.0846875 16.315625 -1.0846875 16.315625 -2 16 C-1.360625 15.896875 -0.72125 15.79375 -0.0625 15.6875 C0.9584375 15.3471875 0.9584375 15.3471875 2 15 C3.19211438 11.42365687 3.25926574 8.75935317 3 5 C1.63002843 2.12853006 1.63002843 2.12853006 0 0 Z " fill="#E18AC6" transform="translate(300,197)"/>
<path d="M0 0 C0.74507813 0.00902344 1.49015625 0.01804688 2.2578125 0.02734375 C4.08868059 0.05081642 5.91938238 0.08668475 7.75 0.125 C7.75 0.455 7.75 0.785 7.75 1.125 C6.5434375 1.310625 6.5434375 1.310625 5.3125 1.5 C4.466875 1.70625 3.62125 1.9125 2.75 2.125 C2.42 2.785 2.09 3.445 1.75 4.125 C-2.87 3.465 -7.49 2.805 -12.25 2.125 C-7.87703266 -0.06148367 -4.7291784 -0.10862071 0 0 Z " fill="#D763B6" transform="translate(285.25,179.875)"/>
<path d="M0 0 C0.70125 0.721875 1.4025 1.44375 2.125 2.1875 C4.92770745 4.99823813 7.92262792 7.49516226 11 10 C9.68 10.33 8.36 10.66 7 11 C7 10.34 7 9.68 7 9 C5.35 8.67 3.7 8.34 2 8 C1.34 5.36 0.68 2.72 0 0 Z " fill="#ECAC95" transform="translate(215,274)"/>
<path d="M0 0 C5.90693899 0.30291995 10.65233838 3.11608895 15 7 C15 7.99 15 8.98 15 10 C14.34 10 13.68 10 13 10 C13 9.01 13 8.02 13 7 C11.68 6.67 10.36 6.34 9 6 C9 5.34 9 4.68 9 4 C7.68 4 6.36 4 5 4 C5 3.34 5 2.68 5 2 C3.35 2 1.7 2 0 2 C0 1.34 0 0.68 0 0 Z " fill="#E08FAA" transform="translate(257,220)"/>
<path d="M0 0 C-0.7115625 0.61875 -0.7115625 0.61875 -1.4375 1.25 C-3.16266518 3.182185 -3.56584875 4.48192275 -4 7 C-5.65 7 -7.3 7 -9 7 C-9.33 6.34 -9.66 5.68 -10 5 C-9.34 4.67 -8.68 4.34 -8 4 C-7.71125 3.34 -7.4225 2.68 -7.125 2 C-6 0 -6 0 -4 -0.8125 C-2 -1 -2 -1 0 0 Z " fill="#D03B8A" transform="translate(203,184)"/>
<path d="M0 0 C3.63 0.33 7.26 0.66 11 1 C11 1.66 11 2.32 11 3 C5.555 4.485 5.555 4.485 0 6 C0 4.02 0 2.04 0 0 Z " fill="#D22B9A" transform="translate(184,168)"/>
<path d="M0 0 C1.2380014 3.57644848 0.74926071 6.33694766 0 10 C-0.66 10 -1.32 10 -2 10 C-2 10.99 -2 11.98 -2 13 C-2.66 13 -3.32 13 -4 13 C-6 10 -6 10 -6 7 C-5.01 6.67 -4.02 6.34 -3 6 C-2.67 6.33 -2.34 6.66 -2 7 C-1.34 4.69 -0.68 2.38 0 0 Z " fill="#DC5E5F" transform="translate(318,289)"/>
<path d="M0 0 C0.66 0.33 1.32 0.66 2 1 C1.67 1.66 1.34 2.32 1 3 C1 4.32 1 5.64 1 7 C-2.3 6.67 -5.6 6.34 -9 6 C-8.67 5.34 -8.34 4.68 -8 4 C-5.67843403 3.59270772 -3.3431213 3.25561323 -1 3 C-0.67 2.01 -0.34 1.02 0 0 Z " fill="#EA7F5F" transform="translate(271,288)"/>
<path d="M0 0 C0.33 0.66 0.66 1.32 1 2 C1.61875 1.79375 2.2375 1.5875 2.875 1.375 C3.57625 1.25125 4.2775 1.1275 5 1 C5.66 1.66 6.32 2.32 7 3 C5.12175109 4.87824891 1.96064724 4.39102397 -0.5625 4.5625 C-1.76003906 4.64628906 -2.95757812 4.73007813 -4.19140625 4.81640625 C-5.11824219 4.87699219 -6.04507813 4.93757812 -7 5 C-2.25 1.125 -2.25 1.125 0 0 Z " fill="#CE4580" transform="translate(247,203)"/>
<path d="M0 0 C0.99 0.33 1.98 0.66 3 1 C3 2.32 3 3.64 3 5 C3.804375 5.226875 4.60875 5.45375 5.4375 5.6875 C6.283125 6.120625 7.12875 6.55375 8 7 C8.8125 9.625 8.8125 9.625 9 12 C5.5912072 10.6015209 4.12606165 9.14993067 2.25 6 C1.82203125 5.29875 1.3940625 4.5975 0.953125 3.875 C0 2 0 2 0 0 Z " fill="#E7AB9C" transform="translate(221,261)"/>
<path d="M0 0 C0 0.99 0 1.98 0 3 C-0.9590625 3.1546875 -0.9590625 3.1546875 -1.9375 3.3125 C-2.618125 3.539375 -3.29875 3.76625 -4 4 C-4.33 4.99 -4.66 5.98 -5 7 C-7.0625 7.6875 -7.0625 7.6875 -9 8 C-8.66410006 4.86493389 -7.97334828 3.974751 -5.625 1.75 C-3 0 -3 0 0 0 Z " fill="#A148AF" transform="translate(144,129)"/>
<path d="M0 0 C3.40858586 3.40858586 3.93008394 8.32201465 4.125 13 C4.08375 13.66 4.0425 14.32 4 15 C2 14 2 14 0.875 11.4375 C-0.14837318 7.41710538 -0.14258282 4.13490187 0 0 Z " fill="#ECBBA0" transform="translate(180,288)"/>
<path d="M0 0 C0.33 0.66 0.66 1.32 1 2 C1.61875 1.814375 2.2375 1.62875 2.875 1.4375 C5 1 5 1 7 2 C7.59355614 4.64860427 7.74209269 7.29197322 8 10 C7.01 9.67 6.02 9.34 5 9 C5 7.68 5 6.36 5 5 C2.525 4.01 2.525 4.01 0 3 C0 2.01 0 1.02 0 0 Z " fill="#E5775E" transform="translate(224,263)"/>
<path d="M0 0 C0.66 0 1.32 0 2 0 C1.32584613 5.2584002 -0.24265549 10.02638346 -2 15 C-2.33 15 -2.66 15 -3 15 C-3.125 7.375 -3.125 7.375 -2 4 C-1.34 4 -0.68 4 0 4 C0 2.68 0 1.36 0 0 Z " fill="#DF8A95" transform="translate(211,228)"/>
<path d="M0 0 C0.99 0 1.98 0 3 0 C3 0.66 3 1.32 3 2 C3.61875 2.268125 4.2375 2.53625 4.875 2.8125 C7 4 7 4 9 7 C8.34 8.32 7.68 9.64 7 11 C6.01941648 9.54261898 5.04057868 8.08406325 4.0625 6.625 C3.51722656 5.81289062 2.97195313 5.00078125 2.41015625 4.1640625 C1 2 1 2 0 0 Z " fill="#DD7DA4" transform="translate(281,222)"/>
<path d="M0 0 C0.99 0 1.98 0 3 0 C3 0.66 3 1.32 3 2 C6.63 2 10.26 2 14 2 C14 2.33 14 2.66 14 3 C7.07 3 0.14 3 -7 3 C-7 2.67 -7 2.34 -7 2 C-4.69 2 -2.38 2 0 2 C0 1.34 0 0.68 0 0 Z " fill="#EFAE93" transform="translate(279,317)"/>
<path d="M0 0 C5.94 2.475 5.94 2.475 12 5 C12 5.33 12 5.66 12 6 C4.25 6.125 4.25 6.125 2 5 C2 4.34 2 3.68 2 3 C1.34 3 0.68 3 0 3 C0 2.01 0 1.02 0 0 Z " fill="#EAB194" transform="translate(227,285)"/>
<path d="M0 0 C5.01113235 1.4317521 6.94469549 3.98445693 10 8 C8.35 7.67 6.7 7.34 5 7 C5 6.34 5 5.68 5 5 C4.360625 4.731875 3.72125 4.46375 3.0625 4.1875 C1 3 1 3 0 0 Z " fill="#D070B4" transform="translate(304,185)"/>
<path d="M0 0 C2.475 0.99 2.475 0.99 5 2 C4 4 4 4 0.625 5.1875 C-3 6 -3 6 -6 5 C-5.67 4.01 -5.34 3.02 -5 2 C-3.35 2.33 -1.7 2.66 0 3 C0 2.01 0 1.02 0 0 Z " fill="#8763CF" transform="translate(359,130)"/>
<path d="M0 0 C2.24606427 1.77444972 2.95081002 2.58352485 3.29296875 5.48046875 C3.25816406 6.37378906 3.22335938 7.26710938 3.1875 8.1875 C3.16042969 9.08855469 3.13335937 9.98960937 3.10546875 10.91796875 C3.07066406 11.60503906 3.03585938 12.29210937 3 13 C-0.01111938 8.48332093 -0.10067926 5.3360009 0 0 Z " fill="#EDC098" transform="translate(125,344)"/>
<path d="M0 0 C0.33 0 0.66 0 1 0 C1.144375 1.0725 1.28875 2.145 1.4375 3.25 C1.83053853 6.78466394 1.83053853 6.78466394 2.8125 9.125 C3 11 3 11 -1 16 C-0.67 10.72 -0.34 5.44 0 0 Z " fill="#E290A0" transform="translate(331,284)"/>
<path d="M0 0 C0.99 0.33 1.98 0.66 3 1 C1.625 2.5 1.625 2.5 0 4 C-0.66 4 -1.32 4 -2 4 C-1.67 5.98 -1.34 7.96 -1 10 C-1.99 10.495 -1.99 10.495 -3 11 C-3.625 8.1875 -3.625 8.1875 -4 5 C-3.34 4.01 -2.68 3.02 -2 2 C-1.34 2 -0.68 2 0 2 C0 1.34 0 0.68 0 0 Z " fill="#E0615D" transform="translate(289,269)"/>
<path d="M0 0 C0.66 0 1.32 0 2 0 C2 0.99 2 1.98 2 3 C2.66 3 3.32 3 4 3 C3.67 5.97 3.34 8.94 3 12 C2.67 12 2.34 12 2 12 C1.34 8.04 0.68 4.08 0 0 Z " fill="#DA84A0" transform="translate(289,233)"/>
<path d="M0 0 C0.66 1.32 1.32 2.64 2 4 C-0.64 4.33 -3.28 4.66 -6 5 C-5.67 3.68 -5.34 2.36 -5 1 C-3.35 0.67 -1.7 0.34 0 0 Z " fill="#E56B5C" transform="translate(310,305)"/>
<path d="M0 0 C0.33 0 0.66 0 1 0 C1.33 5.61 1.66 11.22 2 17 C1.01 16.67 0.02 16.34 -1 16 C-0.67 10.72 -0.34 5.44 0 0 Z " fill="#F2C7AF" transform="translate(168,282)"/>
<path d="M0 0 C1.65 0 3.3 0 5 0 C5 0.66 5 1.32 5 2 C4.01 2.33 3.02 2.66 2 3 C0.79117904 5.00016466 0.79117904 5.00016466 0 7 C-0.99 6.67 -1.98 6.34 -3 6 C-2.01 4.02 -1.02 2.04 0 0 Z " fill="#D8546D" transform="translate(363,361)"/>
<path d="M0 0 C0.99 0 1.98 0 3 0 C1.82744291 3.33727786 0.81131596 5.77437487 -2 8 C-2.66 8 -3.32 8 -4 8 C-3.67 6.68 -3.34 5.36 -3 4 C-2.01 4 -1.02 4 0 4 C0 2.68 0 1.36 0 0 Z " fill="#DD97A7" transform="translate(368,359)"/>
<path d="M0 0 C-3.18382329 2.81645906 -5.75534029 3.72317437 -10 4 C-10.66 3.34 -11.32 2.68 -12 2 C-7.8803623 0.70756464 -4.33168317 -0.26252625 0 0 Z " fill="#E59D8C" transform="translate(304,315)"/>
<path d="M0 0 C1.32 0.66 2.64 1.32 4 2 C1.03 4.475 1.03 4.475 -2 7 C-2.33 6.01 -2.66 5.02 -3 4 C-2.67 3.34 -2.34 2.68 -2 2 C-1.34 2 -0.68 2 0 2 C0 1.34 0 0.68 0 0 Z " fill="#E89C90" transform="translate(308,308)"/>
<path d="M0 0 C0.99 0.66 1.98 1.32 3 2 C2.01 3.32 1.02 4.64 0 6 C-1.32 5.67 -2.64 5.34 -4 5 C-4 4.01 -4 3.02 -4 2 C-2.68 1.34 -1.36 0.68 0 0 Z " fill="#E6735E" transform="translate(260,272)"/>
<path d="M0 0 C2 3 2 3 1.625 6.1875 C1.41875 7.115625 1.2125 8.04375 1 9 C0.01 9 -0.98 9 -2 9 C-1.125 1.125 -1.125 1.125 0 0 Z " fill="#CF3986" transform="translate(284,201)"/>
<path d="M0 0 C2 3 2 3 2 6 C0.68 6.33 -0.64 6.66 -2 7 C-3 4 -3 4 -2 1 C-1.34 0.67 -0.68 0.34 0 0 Z " fill="#F3A66E" transform="translate(190,302)"/>
<path d="M0 0 C1.32 0 2.64 0 4 0 C3.34 2.64 2.68 5.28 2 8 C1.34 8 0.68 8 0 8 C0 5.36 0 2.72 0 0 Z " fill="#D76FA1" transform="translate(169,193)"/>
<path d="M0 0 C1.98 0 3.96 0 6 0 C6 0.66 6 1.32 6 2 C6.99 1.67 7.98 1.34 9 1 C9.66 1.66 10.32 2.32 11 3 C7.75 3.75 7.75 3.75 4 4 C1.5625 2.0625 1.5625 2.0625 0 0 Z " fill="#CF2E96" transform="translate(288,192)"/>
<path d="M0 0 C0.66 0 1.32 0 2 0 C0.6302836 3.99500618 -1.25722422 6.80009492 -4 10 C-4 8.68 -4 7.36 -4 6 C-3.34 6 -2.68 6 -2 6 C-1.855625 5.195625 -1.71125 4.39125 -1.5625 3.5625 C-1 1 -1 1 0 0 Z " fill="#D87DAF" transform="translate(177,183)"/>
<path d="M0 0 C2.02045442 0.60183749 4.02111039 1.27306096 6 2 C6.33 2.66 6.66 3.32 7 4 C6.34 4 5.68 4 5 4 C3.37485532 5.45833358 3.37485532 5.45833358 2 7 C1.67 6.34 1.34 5.68 1 5 C1.33 4.34 1.66 3.68 2 3 C1.34 2.67 0.68 2.34 0 2 C0 1.34 0 0.68 0 0 Z " fill="#A489D9" transform="translate(355,127)"/>
<path d="M0 0 C2.5654594 2.5654594 2.54046087 4.47686668 3 8 C0.525 7.01 0.525 7.01 -2 6 C-1.34 5.67 -0.68 5.34 0 5 C-0.2784375 4.0409375 -0.2784375 4.0409375 -0.5625 3.0625 C-0.7790625 2.0415625 -0.7790625 2.0415625 -1 1 C-0.67 0.67 -0.34 0.34 0 0 Z " fill="#F5BC7C" transform="translate(133,357)"/>
<path d="M0 0 C4.82360189 -0.19294408 8.49646738 0.24252386 13 2 C13 2.33 13 2.66 13 3 C8.17639811 3.19294408 4.50353262 2.75747614 0 1 C0 0.67 0 0.34 0 0 Z " fill="#F3CE9A" transform="translate(189,327)"/>
<path d="M0 0 C0 3.51716303 -0.82445585 4.37121748 -3 7 C-4.32 6.67 -5.64 6.34 -7 6 C-4.69 4.02 -2.38 2.04 0 0 Z " fill="#E49E95" transform="translate(319,317)"/>
<path d="M0 0 C2.4375 1.25 2.4375 1.25 3.4375 4.25 C-0.3125 5.375 -0.3125 5.375 -2.5625 4.25 C-2.5625 3.26 -2.5625 2.27 -2.5625 1.25 C-3.2225 0.92 -3.8825 0.59 -4.5625 0.25 C-2.5625 -0.75 -2.5625 -0.75 0 0 Z " fill="#D74578" transform="translate(293.5625,231.75)"/>
<path d="M0 0 C0.33 0 0.66 0 1 0 C1 2.97 1 5.94 1 9 C0.01 8.67 -0.98 8.34 -2 8 C-1.125 2.25 -1.125 2.25 0 0 Z " fill="#D7546D" transform="translate(166,223)"/>
<path d="M0 0 C0.99 0.33 1.98 0.66 3 1 C3.33 2.65 3.66 4.3 4 6 C2.68 6.33 1.36 6.66 0 7 C0 4.69 0 2.38 0 0 Z " fill="#D52B98" transform="translate(310,201)"/>
<path d="M0 0 C6.64615385 1.47692308 6.64615385 1.47692308 8.4375 4.125 C8.7159375 5.053125 8.7159375 5.053125 9 6 C5.21213403 5.4739075 2.82847776 4.61896089 0 2 C0 1.34 0 0.68 0 0 Z " fill="#B53CA2" transform="translate(303,168)"/>
<path d="M0 0 C0.66 0.33 1.32 0.66 2 1 C2 2.65 2 4.3 2 6 C0.35 6 -1.3 6 -3 6 C-3 5.01 -3 4.02 -3 3 C-2.01 3 -1.02 3 0 3 C0 2.01 0 1.02 0 0 Z " fill="#AB41B0" transform="translate(133,138)"/>
<path d="M0 0 C2.60018816 3.90028225 2.15085514 7.47434569 2 12 C-0.61020066 9.38979934 -0.63751674 7.62483262 -1 4 C-0.5625 1.625 -0.5625 1.625 0 0 Z " fill="#DD7867" transform="translate(165,260)"/>
<path d="M0 0 C3.04386724 -0.08226668 5.07175348 0.02391783 8 1 C8 1.66 8 2.32 8 3 C6.35 3.66 4.7 4.32 3 5 C3 4.01 3 3.02 3 2 C2.01 2 1.02 2 0 2 C0 1.34 0 0.68 0 0 Z " fill="#DC3C80" transform="translate(278,215)"/>
<path d="M0 0 C3.0916909 2.52956528 3.90931332 5.22454612 5 9 C3.68 8.67 2.36 8.34 1 8 C0.67 5.36 0.34 2.72 0 0 Z " fill="#D571B5" transform="translate(314,194)"/>
<path d="M0 0 C0.33 0.66 0.66 1.32 1 2 C1.99 1.67 2.98 1.34 4 1 C4 1.66 4 2.32 4 3 C3.34 3 2.68 3 2 3 C1.67 4.32 1.34 5.64 1 7 C0.34 7 -0.32 7 -1 7 C-1.04254356 5.00045254 -1.04080783 2.99958364 -1 1 C-0.67 0.67 -0.34 0.34 0 0 Z " fill="#D43096" transform="translate(177,176)"/>
<path d="M0 0 C1.32 0.66 2.64 1.32 4 2 C3.34 3.65 2.68 5.3 2 7 C1.01 7 0.02 7 -1 7 C-0.67 4.69 -0.34 2.38 0 0 Z " fill="#D7576A" transform="translate(292,257)"/>
<path d="M0 0 C0.66 0.33 1.32 0.66 2 1 C0.8125 3 0.8125 3 -1 5 C-3.6875 5.25 -3.6875 5.25 -6 5 C-4.06745228 2.9754262 -2.36841312 1.57894208 0 0 Z " fill="#DE8B9C" transform="translate(235,222)"/>
<path d="M0 0 C0.66 0 1.32 0 2 0 C1.50168276 3.68754757 0.89932357 5.60490662 -2 8 C-2.33 7.01 -2.66 6.02 -3 5 C-2.34 5 -1.68 5 -1 5 C-0.67 3.35 -0.34 1.7 0 0 Z " fill="#DB7D93" transform="translate(216,220)"/>
<path d="M0 0 C0.33 0.99 0.66 1.98 1 3 C1.66 3 2.32 3 3 3 C2.625 5.4375 2.625 5.4375 2 8 C1.01 8.495 1.01 8.495 0 9 C0 6.03 0 3.06 0 0 Z " fill="#C83590" transform="translate(305,201)"/>
<path d="M0 0 C0.66 0 1.32 0 2 0 C1.67 2.31 1.34 4.62 1 7 C0.01 6.01 -0.98 5.02 -2 4 C-1.34 2.68 -0.68 1.36 0 0 Z " fill="#D5639C" transform="translate(188,190)"/>
<path d="M0 0 C1.32 0.66 2.64 1.32 4 2 C4 3.65 4 5.3 4 7 C2.35 5.35 0.7 3.7 -1 2 C-0.67 1.34 -0.34 0.68 0 0 Z " fill="#C45DB1" transform="translate(317,177)"/>
<path d="M0 0 C0.88935377 3.303314 1.46274105 6.62294375 2 10 C1.01 10 0.02 10 -1 10 C-1.125 2.25 -1.125 2.25 0 0 Z " fill="#CD7FC7" transform="translate(126,145)"/>
<path d="M0 0 C1.65 0.33 3.3 0.66 5 1 C2.61426621 2.89213369 0.92824652 4.02391783 -2 5 C-2 4.01 -2 3.02 -2 2 C-1.34 2 -0.68 2 0 2 C0 1.34 0 0.68 0 0 Z " fill="#DD7E9C" transform="translate(227,211)"/>
<path d="M0 0 C0.33 1.32 0.66 2.64 1 4 C-2 6 -2 6 -4.1875 5.625 C-4.785625 5.41875 -5.38375 5.2125 -6 5 C-5.38125 4.9175 -4.7625 4.835 -4.125 4.75 C-1.81562433 4.18741541 -1.81562433 4.18741541 -0.75 1.9375 C-0.5025 1.298125 -0.255 0.65875 0 0 Z " fill="#D576AE" transform="translate(304,208)"/>
</svg>
